<svg xmlns="http://www.w3.org/2000/svg" xmlns:xlink="http://www.w3.org/1999/xlink" xmlns:lucid="lucid" width="1739" height="343"><g transform="translate(0 -26)" lucid:page-tab-id="B.GRV4PH~ax."><path d="M0 0h1739.2v1230.38H0z" fill="#fff"/><path d="M0 305.2h280v60H0z" stroke="#000" stroke-width="2" fill="#fff"/><use xlink:href="#a" transform="matrix(1,0,0,1,5.000000000000227,310.20000000002346) translate(94.57499999999999 17.525)"/><use xlink:href="#b" transform="matrix(1,0,0,1,5.000000000000227,310.20000000002346) translate(2.125 39.125)"/><path d="M0 186.8h280v60H0z" stroke="#000" stroke-width="2" fill="#fff"/><use xlink:href="#c" transform="matrix(1,0,0,1,5.000000000000227,191.80000000002337) translate(91.525 17.525)"/><use xlink:href="#b" transform="matrix(1,0,0,1,5.000000000000227,191.80000000002337) translate(2.125 39.125)"/><path d="M0 68.4h280v60H0z" stroke="#000" stroke-width="2" fill="#fff"/><use xlink:href="#d" transform="matrix(1,0,0,1,5.000000000000227,73.40000000002328) translate(78.1 17.525)"/><use xlink:href="#e" transform="matrix(1,0,0,1,5.000000000000227,73.40000000002328) translate(12.175000000000011 39.125)"/><path d="M281.73 334.52l94.08-87.67" stroke="#000" stroke-width="2" fill="none"/><path d="M282.43 335.23l-1.43 1.34v-2.74l.07-.06z"/><path d="M386.98 236.44l-7.28 13.12-6.32-6.8z" stroke="#000" stroke-width="2"/><path d="M282 216.8h78.5" stroke="#000" stroke-width="2" fill="none"/><path d="M282.03 217.8H281v-2h1.03z"/><path d="M375.76 216.8l-14.26 4.64v-9.28z" stroke="#000" stroke-width="2"/><path d="M281.73 99.08l93.66 88" stroke="#000" stroke-width="2" fill="none"/><path d="M282.43 98.37l-1.37 1.46-.06-.06v-2.74z"/><path d="M386.5 197.54l-13.56-6.4 6.35-6.75z" stroke="#000" stroke-width="2"/><path d="M660 220h220v60H660z" stroke="#000" stroke-width="2" fill="#fff"/><use xlink:href="#f" transform="matrix(1,0,0,1,665.0000000000002,225) translate(45.074999999999996 17.525)"/><use xlink:href="#g" transform="matrix(1,0,0,1,665.0000000000002,225) translate(34.075 39.125)"/><path d="M660 120h400v60H660z" stroke="#000" stroke-width="2" fill="#fff"/><use xlink:href="#h" transform="matrix(1,0,0,1,665.0000000000002,125) translate(63.20000000000002 17.525)"/><use xlink:href="#i" transform="matrix(1,0,0,1,665.0000000000002,125) translate(8.80000000000004 39.125)"/><path d="M591.34 234.7l49.6 11.22" stroke="#000" stroke-width="2" fill="none"/><path d="M591.6 233.72l-.46 1.95-1.83-.4 1.04-.78 1-.83z"/><path d="M655.84 249.3l-14.93 1.36 2.05-9.04z" stroke="#000" stroke-width="2"/><path d="M590.9 198.34l53-37.63" stroke="#000" stroke-width="2" fill="none"/><path d="M591.5 199.14l-.6.42-1.55-1.2-.1-.07 1.1-.8z"/><path d="M656.36 151.87l-8.95 12.04-5.36-7.55z" stroke="#000" stroke-width="2"/><path d="M600 216.8c0 22.1-49.25 40-110 40s-110-17.9-110-40 49.25-40 110-40 110 17.9 110 40z" stroke="#000" stroke-width="2" fill="#fff"/><use xlink:href="#j" transform="matrix(1,0,0,1,385.0000000000008,181.80000000002337) translate(24.23339506172841 39.65277777777778)"/><path d="M1438.4 216.8c0 24.4-71.28 44.2-159.2 44.2-87.92 0-159.2-19.8-159.2-44.2 0-24.4 71.28-44.2 159.2-44.2 87.92 0 159.2 19.8 159.2 44.2z" stroke="#000" stroke-width="2" fill="#fff"/><use xlink:href="#k" transform="matrix(1,0,0,1,1124.9999999999995,177.60000000001173) translate(35.73339506172845 44.93402777777778)"/><path d="M1061.8 150.6l51.46 39.8" stroke="#000" stroke-width="2" fill="none"/><path d="M1062.42 149.84l-1.22 1.58-.2-.16v-2.52z"/><path d="M1125.34 199.74l-14.12-5.06 5.67-7.33z" stroke="#000" stroke-width="2"/><path d="M1520 40h100v88.4h-100z" fill="#fff"/><path d="M1542.22 40h22.22m11.12 0h22.22m11.1 0H1620v9.82m0 9.82V79.3m0 9.8v19.66m0 9.82v9.82h-11.1m-11.12 0h-22.22m-11.12 0h-22.22m-11.1 0H1520v-9.82m0-9.82V89.1m0-9.8V59.63m0-9.82V40h11.1" stroke="#000" stroke-width="2" fill="none"/><use xlink:href="#l" transform="matrix(1,0,0,1,1525.0000000000002,45) translate(37.65432098765432 44.93402777777778)"/><path d="M1518 55.58h-238.8v97.52" stroke="#000" stroke-width="2" fill="none"/><path d="M1519 56.58h-1.03v-2h1.03z"/><path d="M1279.2 168.36l-4.64-14.26h9.28z" stroke="#000" stroke-width="2"/><use xlink:href="#m" transform="matrix(1,0,0,1,1332.2056816839279,29.983755138976047) translate(0 14.4)"/><path d="M1520 176.8h219.2v80H1520z" stroke="#000" stroke-width="2" fill="#fff"/><use xlink:href="#n" transform="matrix(1,0,0,1,1525.0000000000002,181.80000000002337) translate(29.17500000000001 27.525)"/><use xlink:href="#o" transform="matrix(1,0,0,1,1525.0000000000002,181.80000000002337) translate(24.075000000000003 49.125)"/><path d="M1313.14 171.72V108h187.36" stroke="#000" stroke-width="2" fill="none"/><path d="M1314.14 172.78l-2-.12v-.97h2z"/><path d="M1515.76 108l-14.26 4.64v-9.27z" stroke="#000" stroke-width="2"/><use xlink:href="#p" transform="matrix(1,0,0,1,1332.0561378808484,82.40474660633042) translate(0 14.4)"/><path d="M1440.4 216.8h60.1" stroke="#000" stroke-width="2" fill="none"/><path d="M1440.43 217.8h-1.07l.03-.43V216.5l-.03-.55v-.15h1.06z"/><path d="M1515.76 216.8l-14.26 4.64v-9.28z" stroke="#000" stroke-width="2"/><path d="M882 249.94l230.27-14.76" stroke="#000" stroke-width="2" fill="none"/><path d="M882.1 250.93l-1.1.07v-2l.96-.06z"/><path d="M1127.5 234.2l-13.94 5.54-.6-9.25z" stroke="#000" stroke-width="2"/><defs><path d="M4 7l51-268h42L46 7H4" id="q"/><path d="M25-224v-37h50v37H25zM25 0v-190h50V0H25" id="r"/><path d="M220-157c-53 9-28 100-34 157h-49v-107c1-27-5-49-29-50C55-147 81-57 75 0H25l-1-190h47c2 12-1 28 3 38 10-53 101-56 108 0 13-22 24-43 59-42 82 1 51 116 57 194h-49v-107c-1-25-5-48-29-50" id="s"/><path d="M85 4C-2 5 27-109 22-190h50c7 57-23 150 33 157 60-5 35-97 40-157h50l1 190h-47c-2-12 1-28-3-38-12 25-28 42-61 42" id="t"/><path d="M195-6C206 82 75 100 31 46c-4-6-6-13-8-21l49-6c3 16 16 24 34 25 40 0 42-37 40-79-11 22-30 35-61 35-53 0-70-43-70-97 0-56 18-96 73-97 30 0 46 14 59 34l2-30h47zm-90-29c32 0 41-27 41-63 0-35-9-62-40-62-32 0-39 29-40 63 0 36 9 62 39 62" id="u"/><path d="M123 10C108 53 80 86 19 72V37c35 8 53-11 59-39L3-190h52l48 148c12-52 28-100 44-148h51" id="v"/><path d="M135-150c-39-12-60 13-60 57V0H25l-1-190h47c2 13-1 29 3 40 6-28 27-53 61-41v41" id="w"/><path d="M110-194c64 0 96 36 96 99 0 64-35 99-97 99-61 0-95-36-95-99 0-62 34-99 96-99zm-1 164c35 0 45-28 45-65 0-40-10-65-43-65-34 0-45 26-45 65 0 36 10 65 43 65" id="x"/><g id="a"><use transform="matrix(0.05,0,0,0.05,0,0)" xlink:href="#q"/><use transform="matrix(0.05,0,0,0.05,5,0)" xlink:href="#r"/><use transform="matrix(0.05,0,0,0.05,10,0)" xlink:href="#s"/><use transform="matrix(0.05,0,0,0.05,26,0)" xlink:href="#t"/><use transform="matrix(0.05,0,0,0.05,36.95,0)" xlink:href="#q"/><use transform="matrix(0.05,0,0,0.05,41.95,0)" xlink:href="#u"/><use transform="matrix(0.05,0,0,0.05,52.900000000000006,0)" xlink:href="#v"/><use transform="matrix(0.05,0,0,0.05,62.900000000000006,0)" xlink:href="#w"/><use transform="matrix(0.05,0,0,0.05,69.9,0)" xlink:href="#x"/></g><path fill="#0c7cba" d="M177-190C167-65 218 103 67 71c-23-6-38-20-44-43l32-5c15 47 100 32 89-28v-30C133-14 115 1 83 1 29 1 15-40 15-95c0-56 16-97 71-98 29-1 48 16 59 35 1-10 0-23 2-32h30zM94-22c36 0 50-32 50-73 0-42-14-75-50-75-39 0-46 34-46 75s6 73 46 73" id="y"/><path fill="#0c7cba" d="M100-194c63 0 86 42 84 106H49c0 40 14 67 53 68 26 1 43-12 49-29l28 8c-11 28-37 45-77 45C44 4 14-33 15-96c1-61 26-98 85-98zm52 81c6-60-76-77-97-28-3 7-6 17-6 28h103" id="z"/><path fill="#0c7cba" d="M100-194c62-1 85 37 85 99 1 63-27 99-86 99S16-35 15-95c0-66 28-99 85-99zM99-20c44 1 53-31 53-75 0-43-8-75-51-75s-53 32-53 75 10 74 51 75" id="A"/><path fill="#0c7cba" d="M210-169c-67 3-38 105-44 169h-31v-121c0-29-5-50-35-48C34-165 62-65 56 0H25l-1-190h30c1 10-1 24 2 32 10-44 99-50 107 0 11-21 27-35 58-36 85-2 47 119 55 194h-31v-121c0-29-5-49-35-48" id="B"/><path fill="#0c7cba" d="M59-47c-2 24 18 29 38 22v24C64 9 27 4 27-40v-127H5v-23h24l9-43h21v43h35v23H59v120" id="C"/><path fill="#0c7cba" d="M114-163C36-179 61-72 57 0H25l-1-190h30c1 12-1 29 2 39 6-27 23-49 58-41v29" id="D"/><path fill="#0c7cba" d="M179-190L93 31C79 59 56 82 12 73V49c39 6 53-20 64-50L1-190h34L92-34l54-156h33" id="E"/><path fill="#0c7cba" d="M-5 72V49h209v23H-5" id="F"/><path fill="#0c7cba" d="M135-143c-3-34-86-38-87 0 15 53 115 12 119 90S17 21 10-45l28-5c4 36 97 45 98 0-10-56-113-15-118-90-4-57 82-63 122-42 12 7 21 19 24 35" id="G"/><path fill="#0c7cba" d="M0 4l72-265h28L28 4H0" id="H"/><path fill="#0c7cba" d="M137 0h-34L2-248h35l83 218 83-218h36" id="I"/><path fill="#0c7cba" d="M96-169c-40 0-48 33-48 73s9 75 48 75c24 0 41-14 43-38l32 2c-6 37-31 61-74 61-59 0-76-41-82-99-10-93 101-131 147-64 4 7 5 14 7 22l-32 3c-4-21-16-35-41-35" id="J"/><path fill="#0c7cba" d="M126-127c33 6 58 20 58 59 0 88-139 92-164 29-3-8-5-16-6-25l32-3c6 27 21 44 54 44 32 0 52-15 52-46 0-38-36-46-79-43v-28c39 1 72-4 72-42 0-27-17-43-46-43-28 0-47 15-49 41l-32-3c6-42 35-63 81-64 48-1 79 21 79 65 0 36-21 52-52 59" id="K"/><path fill="#0c7cba" d="M185-189c-5-48-123-54-124 2 14 75 158 14 163 119 3 78-121 87-175 55-17-10-28-26-33-46l33-7c5 56 141 63 141-1 0-78-155-14-162-118-5-82 145-84 179-34 5 7 8 16 11 25" id="L"/><path fill="#0c7cba" d="M141-36C126-15 110 5 73 4 37 3 15-17 15-53c-1-64 63-63 125-63 3-35-9-54-41-54-24 1-41 7-42 31l-33-3c5-37 33-52 76-52 45 0 72 20 72 64v82c-1 20 7 32 28 27v20c-31 9-61-2-59-35zM48-53c0 20 12 33 32 33 41-3 63-29 60-74-43 2-92-5-92 41" id="M"/><path fill="#0c7cba" d="M115-194c55 1 70 41 70 98S169 2 115 4C84 4 66-9 55-30l1 105H24l-1-265h31l2 30c10-21 28-34 59-34zm-8 174c40 0 45-34 45-75s-6-73-45-74c-42 0-51 32-51 76 0 43 10 73 51 73" id="N"/><path fill="#0c7cba" d="M85-194c31 0 48 13 60 33l-1-100h32l1 261h-30c-2-10 0-23-3-31C134-8 116 4 85 4 32 4 16-35 15-94c0-66 23-100 70-100zm9 24c-40 0-46 34-46 75 0 40 6 74 45 74 42 0 51-32 51-76 0-42-9-74-50-73" id="O"/><g id="b"><use transform="matrix(0.05,0,0,0.05,0,0)" xlink:href="#y"/><use transform="matrix(0.05,0,0,0.05,10,0)" xlink:href="#z"/><use transform="matrix(0.05,0,0,0.05,20,0)" xlink:href="#A"/><use transform="matrix(0.05,0,0,0.05,30,0)" xlink:href="#B"/><use transform="matrix(0.05,0,0,0.05,44.95,0)" xlink:href="#z"/><use transform="matrix(0.05,0,0,0.05,54.95,0)" xlink:href="#C"/><use transform="matrix(0.05,0,0,0.05,59.95,0)" xlink:href="#D"/><use transform="matrix(0.05,0,0,0.05,65.9,0)" xlink:href="#E"/><use transform="matrix(0.05,0,0,0.05,74.9,0)" xlink:href="#F"/><use transform="matrix(0.05,0,0,0.05,84.9,0)" xlink:href="#B"/><use transform="matrix(0.05,0,0,0.05,99.85000000000001,0)" xlink:href="#G"/><use transform="matrix(0.05,0,0,0.05,108.85000000000001,0)" xlink:href="#y"/><use transform="matrix(0.05,0,0,0.05,118.85000000000001,0)" xlink:href="#G"/><use transform="matrix(0.05,0,0,0.05,127.85000000000001,0)" xlink:href="#H"/><use transform="matrix(0.05,0,0,0.05,132.85000000000002,0)" xlink:href="#I"/><use transform="matrix(0.05,0,0,0.05,143.85000000000002,0)" xlink:href="#z"/><use transform="matrix(0.05,0,0,0.05,153.85000000000002,0)" xlink:href="#J"/><use transform="matrix(0.05,0,0,0.05,162.85000000000002,0)" xlink:href="#C"/><use transform="matrix(0.05,0,0,0.05,167.85000000000002,0)" xlink:href="#A"/><use transform="matrix(0.05,0,0,0.05,177.85000000000002,0)" xlink:href="#D"/><use transform="matrix(0.05,0,0,0.05,183.8,0)" xlink:href="#K"/><use transform="matrix(0.05,0,0,0.05,193.8,0)" xlink:href="#L"/><use transform="matrix(0.05,0,0,0.05,205.8,0)" xlink:href="#C"/><use transform="matrix(0.05,0,0,0.05,210.8,0)" xlink:href="#M"/><use transform="matrix(0.05,0,0,0.05,220.8,0)" xlink:href="#B"/><use transform="matrix(0.05,0,0,0.05,235.75,0)" xlink:href="#N"/><use transform="matrix(0.05,0,0,0.05,245.75,0)" xlink:href="#z"/><use transform="matrix(0.05,0,0,0.05,255.75,0)" xlink:href="#O"/></g><path d="M133-34C117-15 103 5 69 4 32 3 11-16 11-54c-1-60 55-63 116-61 1-26-3-47-28-47-18 1-26 9-28 27l-52-2c7-38 36-58 82-57s74 22 75 68l1 82c-1 14 12 18 25 15v27c-30 8-71 5-69-32zm-48 3c29 0 43-24 42-57-32 0-66-3-65 30 0 17 8 27 23 27" id="P"/><path d="M190-63c-7 42-38 67-86 67-59 0-84-38-90-98-12-110 154-137 174-36l-49 2c-2-19-15-32-35-32-30 0-35 28-38 64-6 74 65 87 74 30" id="Q"/><path d="M185-48c-13 30-37 53-82 52C43 2 14-33 14-96s30-98 90-98c62 0 83 45 84 108H66c0 31 8 55 39 56 18 0 30-7 34-22zm-45-69c5-46-57-63-70-21-2 6-4 13-4 21h74" id="R"/><path d="M25 0v-261h50V0H25" id="S"/><g id="c"><use transform="matrix(0.05,0,0,0.05,0,0)" xlink:href="#q"/><use transform="matrix(0.05,0,0,0.05,5,0)" xlink:href="#r"/><use transform="matrix(0.05,0,0,0.05,10,0)" xlink:href="#s"/><use transform="matrix(0.05,0,0,0.05,26,0)" xlink:href="#t"/><use transform="matrix(0.05,0,0,0.05,36.95,0)" xlink:href="#q"/><use transform="matrix(0.05,0,0,0.05,41.95,0)" xlink:href="#P"/><use transform="matrix(0.05,0,0,0.05,51.95,0)" xlink:href="#Q"/><use transform="matrix(0.05,0,0,0.05,61.95,0)" xlink:href="#Q"/><use transform="matrix(0.05,0,0,0.05,71.95,0)" xlink:href="#R"/><use transform="matrix(0.05,0,0,0.05,81.95,0)" xlink:href="#S"/></g><path d="M231 0h-52l-39-155L100 0H48L-1-190h46L77-45c9-52 24-97 36-145h53l37 145 32-145h46" id="T"/><path d="M114-157C55-157 80-60 75 0H25v-261h50l-1 109c12-26 28-41 61-42 86-1 58 113 63 194h-50c-7-57 23-157-34-157" id="U"/><path d="M-4 44V30h207v14H-4" id="V"/><path d="M88-194c31-1 46 15 58 34l-1-101h50l1 261h-48c-2-10 0-23-3-31C134-8 116 4 84 4 32 4 16-41 15-95c0-56 19-97 73-99zm17 164c33 0 40-30 41-66 1-37-9-64-41-64s-38 30-39 65c0 43 13 65 39 65" id="W"/><g id="d"><use transform="matrix(0.05,0,0,0.05,0,0)" xlink:href="#q"/><use transform="matrix(0.05,0,0,0.05,5,0)" xlink:href="#T"/><use transform="matrix(0.05,0,0,0.05,19,0)" xlink:href="#U"/><use transform="matrix(0.05,0,0,0.05,29.950000000000003,0)" xlink:href="#R"/><use transform="matrix(0.05,0,0,0.05,39.95,0)" xlink:href="#R"/><use transform="matrix(0.05,0,0,0.05,49.95,0)" xlink:href="#S"/><use transform="matrix(0.05,0,0,0.05,54.95,0)" xlink:href="#V"/><use transform="matrix(0.05,0,0,0.05,64.95,0)" xlink:href="#x"/><use transform="matrix(0.05,0,0,0.05,75.9,0)" xlink:href="#W"/><use transform="matrix(0.05,0,0,0.05,86.85000000000001,0)" xlink:href="#x"/><use transform="matrix(0.05,0,0,0.05,97.80000000000001,0)" xlink:href="#s"/></g><path fill="#0c7cba" d="M127-220V0H93v-220H8v-28h204v28h-85" id="X"/><path fill="#0c7cba" d="M206 0h-36l-40-164L89 0H53L-1-190h32L70-26l43-164h34l41 164 42-164h31" id="Y"/><path fill="#0c7cba" d="M24-231v-30h32v30H24zM24 0v-190h32V0H24" id="Z"/><g id="e"><use transform="matrix(0.05,0,0,0.05,0,0)" xlink:href="#y"/><use transform="matrix(0.05,0,0,0.05,10,0)" xlink:href="#z"/><use transform="matrix(0.05,0,0,0.05,20,0)" xlink:href="#A"/><use transform="matrix(0.05,0,0,0.05,30,0)" xlink:href="#B"/><use transform="matrix(0.05,0,0,0.05,44.95,0)" xlink:href="#z"/><use transform="matrix(0.05,0,0,0.05,54.95,0)" xlink:href="#C"/><use transform="matrix(0.05,0,0,0.05,59.95,0)" xlink:href="#D"/><use transform="matrix(0.05,0,0,0.05,65.9,0)" xlink:href="#E"/><use transform="matrix(0.05,0,0,0.05,74.9,0)" xlink:href="#F"/><use transform="matrix(0.05,0,0,0.05,84.9,0)" xlink:href="#B"/><use transform="matrix(0.05,0,0,0.05,99.85000000000001,0)" xlink:href="#G"/><use transform="matrix(0.05,0,0,0.05,108.85000000000001,0)" xlink:href="#y"/><use transform="matrix(0.05,0,0,0.05,118.85000000000001,0)" xlink:href="#G"/><use transform="matrix(0.05,0,0,0.05,127.85000000000001,0)" xlink:href="#H"/><use transform="matrix(0.05,0,0,0.05,132.85000000000002,0)" xlink:href="#X"/><use transform="matrix(0.05,0,0,0.05,142.8,0)" xlink:href="#Y"/><use transform="matrix(0.05,0,0,0.05,155.75,0)" xlink:href="#Z"/><use transform="matrix(0.05,0,0,0.05,159.7,0)" xlink:href="#G"/><use transform="matrix(0.05,0,0,0.05,168.7,0)" xlink:href="#C"/><use transform="matrix(0.05,0,0,0.05,173.7,0)" xlink:href="#L"/><use transform="matrix(0.05,0,0,0.05,185.7,0)" xlink:href="#C"/><use transform="matrix(0.05,0,0,0.05,190.7,0)" xlink:href="#M"/><use transform="matrix(0.05,0,0,0.05,200.7,0)" xlink:href="#B"/><use transform="matrix(0.05,0,0,0.05,215.64999999999998,0)" xlink:href="#N"/><use transform="matrix(0.05,0,0,0.05,225.64999999999998,0)" xlink:href="#z"/><use transform="matrix(0.05,0,0,0.05,235.64999999999998,0)" xlink:href="#O"/></g><path d="M115-3C79 11 28 4 28-45v-112H4v-33h27l15-45h31v45h36v33H77v99c-1 23 16 31 38 25v30" id="aa"/><g id="f"><use transform="matrix(0.05,0,0,0.05,0,0)" xlink:href="#q"/><use transform="matrix(0.05,0,0,0.05,5,0)" xlink:href="#r"/><use transform="matrix(0.05,0,0,0.05,10,0)" xlink:href="#s"/><use transform="matrix(0.05,0,0,0.05,26,0)" xlink:href="#t"/><use transform="matrix(0.05,0,0,0.05,36.95,0)" xlink:href="#q"/><use transform="matrix(0.05,0,0,0.05,41.95,0)" xlink:href="#W"/><use transform="matrix(0.05,0,0,0.05,52.900000000000006,0)" xlink:href="#P"/><use transform="matrix(0.05,0,0,0.05,62.900000000000006,0)" xlink:href="#aa"/><use transform="matrix(0.05,0,0,0.05,68.85000000000001,0)" xlink:href="#P"/><use transform="matrix(0.05,0,0,0.05,78.85000000000001,0)" xlink:href="#V"/><use transform="matrix(0.05,0,0,0.05,88.85000000000001,0)" xlink:href="#w"/><use transform="matrix(0.05,0,0,0.05,95.85000000000001,0)" xlink:href="#P"/><use transform="matrix(0.05,0,0,0.05,105.85000000000001,0)" xlink:href="#T"/></g><path fill="#0c7cba" d="M117-194c89-4 53 116 60 194h-32v-121c0-31-8-49-39-48C34-167 62-67 57 0H25l-1-190h30c1 10-1 24 2 32 11-22 29-35 61-36" id="ab"/><path fill="#0c7cba" d="M33 0v-248h34V0H33" id="ac"/><path fill="#0c7cba" d="M84 4C-5 8 30-112 23-190h32v120c0 31 7 50 39 49 72-2 45-101 50-169h31l1 190h-30c-1-10 1-25-2-33-11 22-28 36-60 37" id="ad"/><g id="g"><use transform="matrix(0.05,0,0,0.05,0,0)" xlink:href="#G"/><use transform="matrix(0.05,0,0,0.05,9,0)" xlink:href="#z"/><use transform="matrix(0.05,0,0,0.05,19,0)" xlink:href="#ab"/><use transform="matrix(0.05,0,0,0.05,29,0)" xlink:href="#G"/><use transform="matrix(0.05,0,0,0.05,38,0)" xlink:href="#A"/><use transform="matrix(0.05,0,0,0.05,48,0)" xlink:href="#D"/><use transform="matrix(0.05,0,0,0.05,53.95,0)" xlink:href="#F"/><use transform="matrix(0.05,0,0,0.05,63.95,0)" xlink:href="#B"/><use transform="matrix(0.05,0,0,0.05,78.9,0)" xlink:href="#G"/><use transform="matrix(0.05,0,0,0.05,87.9,0)" xlink:href="#y"/><use transform="matrix(0.05,0,0,0.05,97.9,0)" xlink:href="#G"/><use transform="matrix(0.05,0,0,0.05,106.9,0)" xlink:href="#H"/><use transform="matrix(0.05,0,0,0.05,111.9,0)" xlink:href="#ac"/><use transform="matrix(0.05,0,0,0.05,116.9,0)" xlink:href="#B"/><use transform="matrix(0.05,0,0,0.05,131.85,0)" xlink:href="#ad"/></g><path d="M128 0H69L1-190h53L99-40l48-150h52" id="ae"/><path d="M135-194c87-1 58 113 63 194h-50c-7-57 23-157-34-157-59 0-34 97-39 157H25l-1-190h47c2 12-1 28 3 38 12-26 28-41 61-42" id="af"/><g id="h"><use transform="matrix(0.05,0,0,0.05,0,0)" xlink:href="#q"/><use transform="matrix(0.05,0,0,0.05,5,0)" xlink:href="#T"/><use transform="matrix(0.05,0,0,0.05,19,0)" xlink:href="#U"/><use transform="matrix(0.05,0,0,0.05,29.950000000000003,0)" xlink:href="#R"/><use transform="matrix(0.05,0,0,0.05,39.95,0)" xlink:href="#R"/><use transform="matrix(0.05,0,0,0.05,49.95,0)" xlink:href="#S"/><use transform="matrix(0.05,0,0,0.05,54.95,0)" xlink:href="#V"/><use transform="matrix(0.05,0,0,0.05,64.95,0)" xlink:href="#x"/><use transform="matrix(0.05,0,0,0.05,75.9,0)" xlink:href="#W"/><use transform="matrix(0.05,0,0,0.05,86.85000000000001,0)" xlink:href="#x"/><use transform="matrix(0.05,0,0,0.05,97.80000000000001,0)" xlink:href="#s"/><use transform="matrix(0.05,0,0,0.05,113.80000000000001,0)" xlink:href="#V"/><use transform="matrix(0.05,0,0,0.05,123.80000000000001,0)" xlink:href="#T"/><use transform="matrix(0.05,0,0,0.05,137.8,0)" xlink:href="#r"/><use transform="matrix(0.05,0,0,0.05,142.8,0)" xlink:href="#aa"/><use transform="matrix(0.05,0,0,0.05,148.75,0)" xlink:href="#U"/><use transform="matrix(0.05,0,0,0.05,159.7,0)" xlink:href="#V"/><use transform="matrix(0.05,0,0,0.05,169.7,0)" xlink:href="#Q"/><use transform="matrix(0.05,0,0,0.05,179.7,0)" xlink:href="#x"/><use transform="matrix(0.05,0,0,0.05,190.64999999999998,0)" xlink:href="#ae"/><use transform="matrix(0.05,0,0,0.05,200.64999999999998,0)" xlink:href="#P"/><use transform="matrix(0.05,0,0,0.05,210.64999999999998,0)" xlink:href="#w"/><use transform="matrix(0.05,0,0,0.05,217.64999999999998,0)" xlink:href="#r"/><use transform="matrix(0.05,0,0,0.05,222.64999999999998,0)" xlink:href="#P"/><use transform="matrix(0.05,0,0,0.05,232.64999999999998,0)" xlink:href="#af"/><use transform="matrix(0.05,0,0,0.05,243.59999999999997,0)" xlink:href="#Q"/><use transform="matrix(0.05,0,0,0.05,253.59999999999997,0)" xlink:href="#R"/></g><path fill="#0c7cba" d="M266 0h-40l-56-210L115 0H75L2-248h35L96-30l15-64 43-154h32l59 218 59-218h35" id="ag"/><path fill="#0c7cba" d="M106-169C34-169 62-67 57 0H25v-261h32l-1 103c12-21 28-36 61-36 89 0 53 116 60 194h-32v-121c2-32-8-49-39-48" id="ah"/><path fill="#0c7cba" d="M212-179c-10-28-35-45-73-45-59 0-87 40-87 99 0 60 29 101 89 101 43 0 62-24 78-52l27 14C228-24 195 4 139 4 59 4 22-46 18-125c-6-104 99-153 187-111 19 9 31 26 39 46" id="ai"/><path fill="#0c7cba" d="M108 0H70L1-190h34L89-25l56-165h34" id="aj"/><g id="i"><use transform="matrix(0.05,0,0,0.05,0,0)" xlink:href="#y"/><use transform="matrix(0.05,0,0,0.05,10,0)" xlink:href="#z"/><use transform="matrix(0.05,0,0,0.05,20,0)" xlink:href="#A"/><use transform="matrix(0.05,0,0,0.05,30,0)" xlink:href="#B"/><use transform="matrix(0.05,0,0,0.05,44.95,0)" xlink:href="#z"/><use transform="matrix(0.05,0,0,0.05,54.95,0)" xlink:href="#C"/><use transform="matrix(0.05,0,0,0.05,59.95,0)" xlink:href="#D"/><use transform="matrix(0.05,0,0,0.05,65.9,0)" xlink:href="#E"/><use transform="matrix(0.05,0,0,0.05,74.9,0)" xlink:href="#F"/><use transform="matrix(0.05,0,0,0.05,84.9,0)" xlink:href="#B"/><use transform="matrix(0.05,0,0,0.05,99.85000000000001,0)" xlink:href="#G"/><use transform="matrix(0.05,0,0,0.05,108.85000000000001,0)" xlink:href="#y"/><use transform="matrix(0.05,0,0,0.05,118.85000000000001,0)" xlink:href="#G"/><use transform="matrix(0.05,0,0,0.05,127.85000000000001,0)" xlink:href="#H"/><use transform="matrix(0.05,0,0,0.05,132.85000000000002,0)" xlink:href="#X"/><use transform="matrix(0.05,0,0,0.05,142.8,0)" xlink:href="#Y"/><use transform="matrix(0.05,0,0,0.05,155.75,0)" xlink:href="#Z"/><use transform="matrix(0.05,0,0,0.05,159.7,0)" xlink:href="#G"/><use transform="matrix(0.05,0,0,0.05,168.7,0)" xlink:href="#C"/><use transform="matrix(0.05,0,0,0.05,173.7,0)" xlink:href="#ag"/><use transform="matrix(0.05,0,0,0.05,190.64999999999998,0)" xlink:href="#Z"/><use transform="matrix(0.05,0,0,0.05,194.59999999999997,0)" xlink:href="#C"/><use transform="matrix(0.05,0,0,0.05,199.59999999999997,0)" xlink:href="#ah"/><use transform="matrix(0.05,0,0,0.05,209.59999999999997,0)" xlink:href="#ai"/><use transform="matrix(0.05,0,0,0.05,222.54999999999995,0)" xlink:href="#A"/><use transform="matrix(0.05,0,0,0.05,232.54999999999995,0)" xlink:href="#aj"/><use transform="matrix(0.05,0,0,0.05,241.54999999999995,0)" xlink:href="#M"/><use transform="matrix(0.05,0,0,0.05,251.54999999999995,0)" xlink:href="#D"/><use transform="matrix(0.05,0,0,0.05,257.49999999999994,0)" xlink:href="#Z"/><use transform="matrix(0.05,0,0,0.05,261.44999999999993,0)" xlink:href="#M"/><use transform="matrix(0.05,0,0,0.05,271.44999999999993,0)" xlink:href="#ab"/><use transform="matrix(0.05,0,0,0.05,281.44999999999993,0)" xlink:href="#J"/><use transform="matrix(0.05,0,0,0.05,290.44999999999993,0)" xlink:href="#z"/><use transform="matrix(0.05,0,0,0.05,300.44999999999993,0)" xlink:href="#L"/><use transform="matrix(0.05,0,0,0.05,312.44999999999993,0)" xlink:href="#C"/><use transform="matrix(0.05,0,0,0.05,317.44999999999993,0)" xlink:href="#M"/><use transform="matrix(0.05,0,0,0.05,327.44999999999993,0)" xlink:href="#B"/><use transform="matrix(0.05,0,0,0.05,342.3999999999999,0)" xlink:href="#N"/><use transform="matrix(0.05,0,0,0.05,352.3999999999999,0)" xlink:href="#z"/><use transform="matrix(0.05,0,0,0.05,362.3999999999999,0)" xlink:href="#O"/></g><path d="M137-138c1-29-70-34-71-4 15 46 118 7 119 86 1 83-164 76-172 9l43-7c4 19 20 25 44 25 33 8 57-30 24-41C81-84 22-81 20-136c-2-80 154-74 161-7" id="ak"/><path d="M121-226c-27-7-43 5-38 36h38v33H83V0H34v-157H6v-33h28c-9-59 32-81 87-68v32" id="al"/><g id="j"><use transform="matrix(0.06172839506172839,0,0,0.06172839506172839,0,0)" xlink:href="#q"/><use transform="matrix(0.06172839506172839,0,0,0.06172839506172839,6.172839506172839,0)" xlink:href="#s"/><use transform="matrix(0.06172839506172839,0,0,0.06172839506172839,25.925925925925924,0)" xlink:href="#R"/><use transform="matrix(0.06172839506172839,0,0,0.06172839506172839,38.2716049382716,0)" xlink:href="#ak"/><use transform="matrix(0.06172839506172839,0,0,0.06172839506172839,50.61728395061728,0)" xlink:href="#ak"/><use transform="matrix(0.06172839506172839,0,0,0.06172839506172839,62.962962962962955,0)" xlink:href="#P"/><use transform="matrix(0.06172839506172839,0,0,0.06172839506172839,75.30864197530863,0)" xlink:href="#u"/><use transform="matrix(0.06172839506172839,0,0,0.06172839506172839,88.82716049382715,0)" xlink:href="#R"/><use transform="matrix(0.06172839506172839,0,0,0.06172839506172839,101.17283950617283,0)" xlink:href="#V"/><use transform="matrix(0.06172839506172839,0,0,0.06172839506172839,113.51851851851852,0)" xlink:href="#al"/><use transform="matrix(0.06172839506172839,0,0,0.06172839506172839,120.8641975308642,0)" xlink:href="#r"/><use transform="matrix(0.06172839506172839,0,0,0.06172839506172839,127.03703703703702,0)" xlink:href="#S"/><use transform="matrix(0.06172839506172839,0,0,0.06172839506172839,133.20987654320987,0)" xlink:href="#aa"/><use transform="matrix(0.06172839506172839,0,0,0.06172839506172839,140.55555555555554,0)" xlink:href="#R"/><use transform="matrix(0.06172839506172839,0,0,0.06172839506172839,152.9012345679012,0)" xlink:href="#w"/></g><path d="M147 0L96-86 75-71V0H25v-261h50v150l67-79h53l-66 74L201 0h-54" id="am"/><path d="M12 0v-35l95-120H19v-35h142v35L67-36h103V0H12" id="an"/><g id="k"><use transform="matrix(0.06172839506172839,0,0,0.06172839506172839,0,0)" xlink:href="#q"/><use transform="matrix(0.06172839506172839,0,0,0.06172839506172839,6.172839506172839,0)" xlink:href="#R"/><use transform="matrix(0.06172839506172839,0,0,0.06172839506172839,18.51851851851852,0)" xlink:href="#am"/><use transform="matrix(0.06172839506172839,0,0,0.06172839506172839,30.864197530864196,0)" xlink:href="#al"/><use transform="matrix(0.06172839506172839,0,0,0.06172839506172839,38.20987654320987,0)" xlink:href="#V"/><use transform="matrix(0.06172839506172839,0,0,0.06172839506172839,50.55555555555555,0)" xlink:href="#S"/><use transform="matrix(0.06172839506172839,0,0,0.06172839506172839,56.72839506172839,0)" xlink:href="#x"/><use transform="matrix(0.06172839506172839,0,0,0.06172839506172839,70.24691358024691,0)" xlink:href="#Q"/><use transform="matrix(0.06172839506172839,0,0,0.06172839506172839,82.5925925925926,0)" xlink:href="#P"/><use transform="matrix(0.06172839506172839,0,0,0.06172839506172839,94.93827160493828,0)" xlink:href="#S"/><use transform="matrix(0.06172839506172839,0,0,0.06172839506172839,101.11111111111111,0)" xlink:href="#r"/><use transform="matrix(0.06172839506172839,0,0,0.06172839506172839,107.28395061728395,0)" xlink:href="#an"/><use transform="matrix(0.06172839506172839,0,0,0.06172839506172839,118.39506172839506,0)" xlink:href="#P"/><use transform="matrix(0.06172839506172839,0,0,0.06172839506172839,130.74074074074073,0)" xlink:href="#aa"/><use transform="matrix(0.06172839506172839,0,0,0.06172839506172839,138.0864197530864,0)" xlink:href="#r"/><use transform="matrix(0.06172839506172839,0,0,0.06172839506172839,144.25925925925924,0)" xlink:href="#x"/><use transform="matrix(0.06172839506172839,0,0,0.06172839506172839,157.77777777777774,0)" xlink:href="#af"/><use transform="matrix(0.06172839506172839,0,0,0.06172839506172839,171.29629629629625,0)" xlink:href="#V"/><use transform="matrix(0.06172839506172839,0,0,0.06172839506172839,183.64197530864192,0)" xlink:href="#af"/><use transform="matrix(0.06172839506172839,0,0,0.06172839506172839,197.16049382716042,0)" xlink:href="#x"/><use transform="matrix(0.06172839506172839,0,0,0.06172839506172839,210.67901234567893,0)" xlink:href="#W"/><use transform="matrix(0.06172839506172839,0,0,0.06172839506172839,224.19753086419743,0)" xlink:href="#R"/></g><g id="l"><use transform="matrix(0.06172839506172839,0,0,0.06172839506172839,0,0)" xlink:href="#aa"/><use transform="matrix(0.06172839506172839,0,0,0.06172839506172839,7.345679012345679,0)" xlink:href="#al"/></g><path d="M115-194c53 0 69 39 70 98 0 66-23 100-70 100C84 3 66-7 56-30L54 0H23l1-261h32v101c10-23 28-34 59-34zm-8 174c40 0 45-34 45-75 0-40-5-75-45-74-42 0-51 32-51 76 0 43 10 73 51 73" id="ao"/><path d="M141-36C126-15 110 5 73 4 37 3 15-17 15-53c-1-64 63-63 125-63 3-35-9-54-41-54-24 1-41 7-42 31l-33-3c5-37 33-52 76-52 45 0 72 20 72 64v82c-1 20 7 32 28 27v20c-31 9-61-2-59-35zM48-53c0 20 12 33 32 33 41-3 63-29 60-74-43 2-92-5-92 41" id="ap"/><path d="M135-143c-3-34-86-38-87 0 15 53 115 12 119 90S17 21 10-45l28-5c4 36 97 45 98 0-10-56-113-15-118-90-4-57 82-63 122-42 12 7 21 19 24 35" id="aq"/><path d="M100-194c63 0 86 42 84 106H49c0 40 14 67 53 68 26 1 43-12 49-29l28 8c-11 28-37 45-77 45C44 4 14-33 15-96c1-61 26-98 85-98zm52 81c6-60-76-77-97-28-3 7-6 17-6 28h103" id="ar"/><path d="M-5 72V49h209v23H-5" id="as"/><path d="M24 0v-261h32V0H24" id="at"/><path d="M24-231v-30h32v30H24zM24 0v-190h32V0H24" id="au"/><path d="M117-194c89-4 53 116 60 194h-32v-121c0-31-8-49-39-48C34-167 62-67 57 0H25l-1-190h30c1 10-1 24 2 32 11-22 29-35 61-36" id="av"/><path d="M143 0L79-87 56-68V0H24v-261h32v163l83-92h37l-77 82L181 0h-38" id="aw"/><path d="M16-82v-28h88v28H16" id="ax"/><path d="M18-27v-27l151-64-151-65v-27l175 74v36" id="ay"/><path d="M210-169c-67 3-38 105-44 169h-31v-121c0-29-5-50-35-48C34-165 62-65 56 0H25l-1-190h30c1 10-1 24 2 32 10-44 99-50 107 0 11-21 27-35 58-36 85-2 47 119 55 194h-31v-121c0-29-5-49-35-48" id="az"/><path d="M84 4C-5 8 30-112 23-190h32v120c0 31 7 50 39 49 72-2 45-101 50-169h31l1 190h-30c-1-10 1-25-2-33-11 22-28 36-60 37" id="aA"/><g id="m"><use transform="matrix(0.05,0,0,0.05,0,0)" xlink:href="#ao"/><use transform="matrix(0.05,0,0,0.05,10,0)" xlink:href="#ap"/><use transform="matrix(0.05,0,0,0.05,20,0)" xlink:href="#aq"/><use transform="matrix(0.05,0,0,0.05,29,0)" xlink:href="#ar"/><use transform="matrix(0.05,0,0,0.05,39,0)" xlink:href="#as"/><use transform="matrix(0.05,0,0,0.05,49,0)" xlink:href="#at"/><use transform="matrix(0.05,0,0,0.05,52.95,0)" xlink:href="#au"/><use transform="matrix(0.05,0,0,0.05,56.900000000000006,0)" xlink:href="#av"/><use transform="matrix(0.05,0,0,0.05,66.9,0)" xlink:href="#aw"/><use transform="matrix(0.05,0,0,0.05,75.9,0)" xlink:href="#ax"/><use transform="matrix(0.05,0,0,0.05,81.85000000000001,0)" xlink:href="#ay"/><use transform="matrix(0.05,0,0,0.05,92.35000000000001,0)" xlink:href="#au"/><use transform="matrix(0.05,0,0,0.05,96.30000000000001,0)" xlink:href="#az"/><use transform="matrix(0.05,0,0,0.05,111.25,0)" xlink:href="#aA"/></g><g id="n"><use transform="matrix(0.05,0,0,0.05,0,0)" xlink:href="#q"/><use transform="matrix(0.05,0,0,0.05,5,0)" xlink:href="#x"/><use transform="matrix(0.05,0,0,0.05,15.950000000000001,0)" xlink:href="#W"/><use transform="matrix(0.05,0,0,0.05,26.900000000000002,0)" xlink:href="#x"/><use transform="matrix(0.05,0,0,0.05,37.85,0)" xlink:href="#s"/><use transform="matrix(0.05,0,0,0.05,53.85,0)" xlink:href="#R"/><use transform="matrix(0.05,0,0,0.05,63.85,0)" xlink:href="#aa"/><use transform="matrix(0.05,0,0,0.05,69.8,0)" xlink:href="#w"/><use transform="matrix(0.05,0,0,0.05,76.8,0)" xlink:href="#v"/><use transform="matrix(0.05,0,0,0.05,86.8,0)" xlink:href="#q"/><use transform="matrix(0.05,0,0,0.05,91.8,0)" xlink:href="#al"/><use transform="matrix(0.05,0,0,0.05,97.75,0)" xlink:href="#r"/><use transform="matrix(0.05,0,0,0.05,102.75,0)" xlink:href="#S"/><use transform="matrix(0.05,0,0,0.05,107.75,0)" xlink:href="#aa"/><use transform="matrix(0.05,0,0,0.05,113.7,0)" xlink:href="#R"/><use transform="matrix(0.05,0,0,0.05,123.7,0)" xlink:href="#w"/><use transform="matrix(0.05,0,0,0.05,130.7,0)" xlink:href="#R"/><use transform="matrix(0.05,0,0,0.05,140.7,0)" xlink:href="#W"/></g><g id="o"><use transform="matrix(0.05,0,0,0.05,0,0)" xlink:href="#ab"/><use transform="matrix(0.05,0,0,0.05,10,0)" xlink:href="#M"/><use transform="matrix(0.05,0,0,0.05,20,0)" xlink:href="#aj"/><use transform="matrix(0.05,0,0,0.05,29,0)" xlink:href="#F"/><use transform="matrix(0.05,0,0,0.05,39,0)" xlink:href="#B"/><use transform="matrix(0.05,0,0,0.05,53.95,0)" xlink:href="#G"/><use transform="matrix(0.05,0,0,0.05,62.95,0)" xlink:href="#y"/><use transform="matrix(0.05,0,0,0.05,72.95,0)" xlink:href="#G"/><use transform="matrix(0.05,0,0,0.05,81.95,0)" xlink:href="#H"/><use transform="matrix(0.05,0,0,0.05,86.95,0)" xlink:href="#A"/><use transform="matrix(0.05,0,0,0.05,96.95,0)" xlink:href="#O"/><use transform="matrix(0.05,0,0,0.05,106.95,0)" xlink:href="#A"/><use transform="matrix(0.05,0,0,0.05,116.95,0)" xlink:href="#B"/><use transform="matrix(0.05,0,0,0.05,131.9,0)" xlink:href="#z"/><use transform="matrix(0.05,0,0,0.05,141.9,0)" xlink:href="#C"/><use transform="matrix(0.05,0,0,0.05,146.9,0)" xlink:href="#D"/><use transform="matrix(0.05,0,0,0.05,152.85,0)" xlink:href="#E"/></g><path d="M100-194c62-1 85 37 85 99 1 63-27 99-86 99S16-35 15-95c0-66 28-99 85-99zM99-20c44 1 53-31 53-75 0-43-8-75-51-75s-53 32-53 75 10 74 51 75" id="aB"/><path d="M85-194c31 0 48 13 60 33l-1-100h32l1 261h-30c-2-10 0-23-3-31C134-8 116 4 85 4 32 4 16-35 15-94c0-66 23-100 70-100zm9 24c-40 0-46 34-46 75 0 40 6 74 45 74 42 0 51-32 51-76 0-42-9-74-50-73" id="aC"/><g id="p"><use transform="matrix(0.05,0,0,0.05,0,0)" xlink:href="#aB"/><use transform="matrix(0.05,0,0,0.05,10,0)" xlink:href="#aC"/><use transform="matrix(0.05,0,0,0.05,20,0)" xlink:href="#aB"/><use transform="matrix(0.05,0,0,0.05,30,0)" xlink:href="#az"/><use transform="matrix(0.05,0,0,0.05,44.95,0)" xlink:href="#ax"/><use transform="matrix(0.05,0,0,0.05,50.900000000000006,0)" xlink:href="#ay"/><use transform="matrix(0.05,0,0,0.05,61.400000000000006,0)" xlink:href="#ao"/><use transform="matrix(0.05,0,0,0.05,71.4,0)" xlink:href="#ap"/><use transform="matrix(0.05,0,0,0.05,81.4,0)" xlink:href="#aq"/><use transform="matrix(0.05,0,0,0.05,90.4,0)" xlink:href="#ar"/><use transform="matrix(0.05,0,0,0.05,100.4,0)" xlink:href="#as"/><use transform="matrix(0.05,0,0,0.05,110.4,0)" xlink:href="#at"/><use transform="matrix(0.05,0,0,0.05,114.35000000000001,0)" xlink:href="#au"/><use transform="matrix(0.05,0,0,0.05,118.30000000000001,0)" xlink:href="#av"/><use transform="matrix(0.05,0,0,0.05,128.3,0)" xlink:href="#aw"/></g></defs></g></svg>