<svg xmlns="http://www.w3.org/2000/svg" xmlns:xlink="http://www.w3.org/1999/xlink" xmlns:lucid="lucid" width="1710" height="440"><g transform="translate(0 0)" lucid:page-tab-id="UkXRYtLRkUJj"><path d="M0 0h1710v2419.45H0z" fill="#fff"/><path d="M170 0h240v73.2H170z" stroke="#000" stroke-width="2" fill="#fff"/><use xlink:href="#a" transform="matrix(1,0,0,1,174.99999999999994,5.000000000000007) translate(92.025 26.4)"/><use xlink:href="#b" transform="matrix(1,0,0,1,174.99999999999994,5.000000000000007) translate(16.075000000000003 48)"/><path d="M430 0h240v73.2H430z" stroke="#000" stroke-width="2" fill="#fff"/><use xlink:href="#c" transform="matrix(1,0,0,1,434.9999999999998,5) translate(94.025 26.4)"/><use xlink:href="#d" transform="matrix(1,0,0,1,434.9999999999998,5) translate(9.575000000000017 48)"/><path d="M690 0h240v73.2H690z" stroke="#000" stroke-width="2" fill="#fff"/><use xlink:href="#e" transform="matrix(1,0,0,1,694.9999999999995,5.000000000000007) translate(39.17500000000001 26.4)"/><use xlink:href="#f" transform="matrix(1,0,0,1,694.9999999999995,5.000000000000007) translate(34.075 48)"/><path d="M660 200c0 22.1-49.25 40-110 40s-110-17.9-110-40 49.25-40 110-40 110 17.9 110 40z" stroke="#000" stroke-width="2" fill="#fff"/><use xlink:href="#g" transform="matrix(1,0,0,1,444.9999999999997,165) translate(41.48648148148147 39.65277777777778)"/><path d="M1390 300c0 22.1-49.25 40-110 40s-110-17.9-110-40 49.25-40 110-40 110 17.9 110 40z" stroke="#000" stroke-width="2" fill="#fff"/><use xlink:href="#h" transform="matrix(1,0,0,1,1174.9999999999995,265) translate(47.69018518518518 39.65277777777778)"/><path d="M150 320h100v88.4H150z" fill="#fff"/><path d="M172.22 320h22.22m11.12 0h22.22m11.1 0H250v9.82m0 9.82v19.65m0 9.8v19.66m0 9.82v9.82h-11.1m-11.12 0h-22.22m-11.12 0h-22.22m-11.1 0H150v-9.82m0-9.82V369.1m0-9.8v-19.66m0-9.82V320h11.1" stroke="#000" stroke-width="2" fill="none"/><use xlink:href="#i" transform="matrix(1,0,0,1,154.9999999999995,325) translate(37.65432098765432 44.93402777777778)"/><path d="M252 364.2h298V259.5" stroke="#000" stroke-width="2" fill="none"/><path d="M252.03 365.2H251v-2h1.03z"/><path d="M550 244.24l4.64 14.26h-9.28z" stroke="#000" stroke-width="2"/><use xlink:href="#j" transform="matrix(1,0,0,1,299.5374602625855,295.40000000001163) translate(0 14.4)"/><use xlink:href="#k" transform="matrix(1,0,0,1,299.5374602625855,295.40000000001163) translate(0 36)"/><use xlink:href="#l" transform="matrix(1,0,0,1,299.5374602625855,295.40000000001163) translate(0 57.6)"/><path d="M810 163.4h240v73.2H810z" stroke="#000" stroke-width="2" fill="#fff"/><use xlink:href="#m" transform="matrix(1,0,0,1,814.9999999999997,168.4000000000117) translate(73.55 26.4)"/><use xlink:href="#n" transform="matrix(1,0,0,1,814.9999999999997,168.4000000000117) translate(28.150000000000006 48)"/><path d="M662 200h128.5" stroke="#000" stroke-width="2" fill="none"/><path d="M662.03 201h-1.07l.02-.28.02-.7v-.43l-.03-.6h1.06z"/><path d="M805.76 200l-14.26 4.64v-9.28z" stroke="#000" stroke-width="2"/><path d="M1470 263.4h240v73.2h-240z" stroke="#000" stroke-width="2" fill="#fff"/><use xlink:href="#o" transform="matrix(1,0,0,1,1474.9999999999995,268.4000000000117) translate(76.525 26.4)"/><use xlink:href="#n" transform="matrix(1,0,0,1,1474.9999999999995,268.4000000000117) translate(28.150000000000006 48)"/><path d="M1392 300h58.5" stroke="#000" stroke-width="2" fill="none"/><path d="M1392.03 301h-1.07l.02-.28.02-.7v-.43l-.03-.6h1.06z"/><path d="M1465.76 300l-14.26 4.64v-9.28z" stroke="#000" stroke-width="2"/><path d="M810 363.4h240v73.2H810z" fill="#fff"/><path d="M811 363.4c0 .55-.45 1-1 1s-1-.45-1-1 .45-1 1-1 1 .45 1 1zm4 0c0 .55-.45 1-1 1s-1-.45-1-1 .45-1 1-1 1 .45 1 1zm4 0c0 .55-.45 1-1 1s-1-.45-1-1 .45-1 1-1 1 .45 1 1zm4 0c0 .55-.45 1-1 1s-1-.45-1-1 .45-1 1-1 1 .45 1 1zm4 0c0 .55-.45 1-1 1s-1-.45-1-1 .45-1 1-1 1 .45 1 1zm4 0c0 .55-.45 1-1 1s-1-.45-1-1 .45-1 1-1 1 .45 1 1zm4 0c0 .55-.45 1-1 1s-1-.45-1-1 .45-1 1-1 1 .45 1 1zm4 0c0 .55-.45 1-1 1s-1-.45-1-1 .45-1 1-1 1 .45 1 1zm4 0c0 .55-.45 1-1 1s-1-.45-1-1 .45-1 1-1 1 .45 1 1zm4 0c0 .55-.45 1-1 1s-1-.45-1-1 .45-1 1-1 1 .45 1 1zm4 0c0 .55-.45 1-1 1s-1-.45-1-1 .45-1 1-1 1 .45 1 1zm4 0c0 .55-.45 1-1 1s-1-.45-1-1 .45-1 1-1 1 .45 1 1zm4 0c0 .55-.45 1-1 1s-1-.45-1-1 .45-1 1-1 1 .45 1 1zm4 0c0 .55-.45 1-1 1s-1-.45-1-1 .45-1 1-1 1 .45 1 1zm4 0c0 .55-.45 1-1 1s-1-.45-1-1 .45-1 1-1 1 .45 1 1zm4 0c0 .55-.45 1-1 1s-1-.45-1-1 .45-1 1-1 1 .45 1 1zm4 0c0 .55-.45 1-1 1s-1-.45-1-1 .45-1 1-1 1 .45 1 1zm4 0c0 .55-.45 1-1 1s-1-.45-1-1 .45-1 1-1 1 .45 1 1zm4 0c0 .55-.45 1-1 1s-1-.45-1-1 .45-1 1-1 1 .45 1 1zm4 0c0 .55-.45 1-1 1s-1-.45-1-1 .45-1 1-1 1 .45 1 1zm4 0c0 .55-.45 1-1 1s-1-.45-1-1 .45-1 1-1 1 .45 1 1zm4 0c0 .55-.45 1-1 1s-1-.45-1-1 .45-1 1-1 1 .45 1 1zm4 0c0 .55-.45 1-1 1s-1-.45-1-1 .45-1 1-1 1 .45 1 1zm4 0c0 .55-.45 1-1 1s-1-.45-1-1 .45-1 1-1 1 .45 1 1zm4 0c0 .55-.45 1-1 1s-1-.45-1-1 .45-1 1-1 1 .45 1 1zm4 0c0 .55-.45 1-1 1s-1-.45-1-1 .45-1 1-1 1 .45 1 1zm4 0c0 .55-.45 1-1 1s-1-.45-1-1 .45-1 1-1 1 .45 1 1zm4 0c0 .55-.45 1-1 1s-1-.45-1-1 .45-1 1-1 1 .45 1 1zm4 0c0 .55-.45 1-1 1s-1-.45-1-1 .45-1 1-1 1 .45 1 1zm4 0c0 .55-.45 1-1 1s-1-.45-1-1 .45-1 1-1 1 .45 1 1zm4 0c0 .55-.45 1-1 1s-1-.45-1-1 .45-1 1-1 1 .45 1 1zm4 0c0 .55-.45 1-1 1s-1-.45-1-1 .45-1 1-1 1 .45 1 1zm4 0c0 .55-.45 1-1 1s-1-.45-1-1 .45-1 1-1 1 .45 1 1zm4 0c0 .55-.45 1-1 1s-1-.45-1-1 .45-1 1-1 1 .45 1 1zm4 0c0 .55-.45 1-1 1s-1-.45-1-1 .45-1 1-1 1 .45 1 1zm4 0c0 .55-.45 1-1 1s-1-.45-1-1 .45-1 1-1 1 .45 1 1zm4 0c0 .55-.45 1-1 1s-1-.45-1-1 .45-1 1-1 1 .45 1 1zm4 0c0 .55-.45 1-1 1s-1-.45-1-1 .45-1 1-1 1 .45 1 1zm4 0c0 .55-.45 1-1 1s-1-.45-1-1 .45-1 1-1 1 .45 1 1zm4 0c0 .55-.45 1-1 1s-1-.45-1-1 .45-1 1-1 1 .45 1 1zm4 0c0 .55-.45 1-1 1s-1-.45-1-1 .45-1 1-1 1 .45 1 1zm4 0c0 .55-.45 1-1 1s-1-.45-1-1 .45-1 1-1 1 .45 1 1zm4 0c0 .55-.45 1-1 1s-1-.45-1-1 .45-1 1-1 1 .45 1 1zm4 0c0 .55-.45 1-1 1s-1-.45-1-1 .45-1 1-1 1 .45 1 1zm4 0c0 .55-.45 1-1 1s-1-.45-1-1 .45-1 1-1 1 .45 1 1zm4 0c0 .55-.45 1-1 1s-1-.45-1-1 .45-1 1-1 1 .45 1 1zm4 0c0 .55-.45 1-1 1s-1-.45-1-1 .45-1 1-1 1 .45 1 1zm4 0c0 .55-.45 1-1 1s-1-.45-1-1 .45-1 1-1 1 .45 1 1zm4 0c0 .55-.45 1-1 1s-1-.45-1-1 .45-1 1-1 1 .45 1 1zm4 0c0 .55-.45 1-1 1s-1-.45-1-1 .45-1 1-1 1 .45 1 1zm4 0c0 .55-.45 1-1 1s-1-.45-1-1 .45-1 1-1 1 .45 1 1zm4 0c0 .55-.45 1-1 1s-1-.45-1-1 .45-1 1-1 1 .45 1 1zm4 0c0 .55-.45 1-1 1s-1-.45-1-1 .45-1 1-1 1 .45 1 1zm4 0c0 .55-.45 1-1 1s-1-.45-1-1 .45-1 1-1 1 .45 1 1zm4 0c0 .55-.45 1-1 1s-1-.45-1-1 .45-1 1-1 1 .45 1 1zm4 0c0 .55-.45 1-1 1s-1-.45-1-1 .45-1 1-1 1 .45 1 1zm4 0c0 .55-.45 1-1 1s-1-.45-1-1 .45-1 1-1 1 .45 1 1zm4 0c0 .55-.45 1-1 1s-1-.45-1-1 .45-1 1-1 1 .45 1 1zm4 0c0 .55-.45 1-1 1s-1-.45-1-1 .45-1 1-1 1 .45 1 1zm4 0c0 .55-.45 1-1 1s-1-.45-1-1 .45-1 1-1 1 .45 1 1zm4 0c0 .55-.45 1-1 1s-1-.45-1-1 .45-1 1-1 1 .45 1 1zm0 4.07c0 .55-.45 1-1 1s-1-.45-1-1c0-.56.45-1 1-1s1 .44 1 1zm0 4.06c0 .56-.45 1-1 1s-1-.44-1-1c0-.55.45-1 1-1s1 .45 1 1zm0 4.07c0 .55-.45 1-1 1s-1-.45-1-1 .45-1 1-1 1 .45 1 1zm0 4.07c0 .55-.45 1-1 1s-1-.45-1-1c0-.56.45-1 1-1s1 .44 1 1zm0 4.06c0 .56-.45 1-1 1s-1-.44-1-1c0-.55.45-1 1-1s1 .45 1 1zm0 4.07c0 .55-.45 1-1 1s-1-.45-1-1 .45-1 1-1 1 .45 1 1zm0 4.07c0 .55-.45 1-1 1s-1-.45-1-1c0-.56.45-1 1-1s1 .44 1 1zm0 4.06c0 .56-.45 1-1 1s-1-.44-1-1c0-.55.45-1 1-1s1 .45 1 1zm0 4.07c0 .55-.45 1-1 1s-1-.45-1-1 .45-1 1-1 1 .45 1 1zm0 4.07c0 .55-.45 1-1 1s-1-.45-1-1c0-.56.45-1 1-1s1 .44 1 1zm0 4.06c0 .56-.45 1-1 1s-1-.44-1-1c0-.55.45-1 1-1s1 .45 1 1zm0 4.07c0 .55-.45 1-1 1s-1-.45-1-1 .45-1 1-1 1 .45 1 1zm0 4.07c0 .55-.45 1-1 1s-1-.45-1-1c0-.56.45-1 1-1s1 .44 1 1zm0 4.06c0 .56-.45 1-1 1s-1-.44-1-1c0-.55.45-1 1-1s1 .45 1 1zm0 4.07c0 .55-.45 1-1 1s-1-.45-1-1 .45-1 1-1 1 .45 1 1zm0 4.07c0 .55-.45 1-1 1s-1-.45-1-1c0-.56.45-1 1-1s1 .44 1 1zm0 4.06c0 .56-.45 1-1 1s-1-.44-1-1c0-.55.45-1 1-1s1 .45 1 1zm0 4.07c0 .55-.45 1-1 1s-1-.45-1-1 .45-1 1-1 1 .45 1 1zm-4 0c0 .55-.45 1-1 1s-1-.45-1-1 .45-1 1-1 1 .45 1 1zm-4 0c0 .55-.45 1-1 1s-1-.45-1-1 .45-1 1-1 1 .45 1 1zm-4 0c0 .55-.45 1-1 1s-1-.45-1-1 .45-1 1-1 1 .45 1 1zm-4 0c0 .55-.45 1-1 1s-1-.45-1-1 .45-1 1-1 1 .45 1 1zm-4 0c0 .55-.45 1-1 1s-1-.45-1-1 .45-1 1-1 1 .45 1 1zm-4 0c0 .55-.45 1-1 1s-1-.45-1-1 .45-1 1-1 1 .45 1 1zm-4 0c0 .55-.45 1-1 1s-1-.45-1-1 .45-1 1-1 1 .45 1 1zm-4 0c0 .55-.45 1-1 1s-1-.45-1-1 .45-1 1-1 1 .45 1 1zm-4 0c0 .55-.45 1-1 1s-1-.45-1-1 .45-1 1-1 1 .45 1 1zm-4 0c0 .55-.45 1-1 1s-1-.45-1-1 .45-1 1-1 1 .45 1 1zm-4 0c0 .55-.45 1-1 1s-1-.45-1-1 .45-1 1-1 1 .45 1 1zm-4 0c0 .55-.45 1-1 1s-1-.45-1-1 .45-1 1-1 1 .45 1 1zm-4 0c0 .55-.45 1-1 1s-1-.45-1-1 .45-1 1-1 1 .45 1 1zm-4 0c0 .55-.45 1-1 1s-1-.45-1-1 .45-1 1-1 1 .45 1 1zm-4 0c0 .55-.45 1-1 1s-1-.45-1-1 .45-1 1-1 1 .45 1 1zm-4 0c0 .55-.45 1-1 1s-1-.45-1-1 .45-1 1-1 1 .45 1 1zm-4 0c0 .55-.45 1-1 1s-1-.45-1-1 .45-1 1-1 1 .45 1 1zm-4 0c0 .55-.45 1-1 1s-1-.45-1-1 .45-1 1-1 1 .45 1 1zm-4 0c0 .55-.45 1-1 1s-1-.45-1-1 .45-1 1-1 1 .45 1 1zm-4 0c0 .55-.45 1-1 1s-1-.45-1-1 .45-1 1-1 1 .45 1 1zm-4 0c0 .55-.45 1-1 1s-1-.45-1-1 .45-1 1-1 1 .45 1 1zm-4 0c0 .55-.45 1-1 1s-1-.45-1-1 .45-1 1-1 1 .45 1 1zm-4 0c0 .55-.45 1-1 1s-1-.45-1-1 .45-1 1-1 1 .45 1 1zm-4 0c0 .55-.45 1-1 1s-1-.45-1-1 .45-1 1-1 1 .45 1 1zm-4 0c0 .55-.45 1-1 1s-1-.45-1-1 .45-1 1-1 1 .45 1 1zm-4 0c0 .55-.45 1-1 1s-1-.45-1-1 .45-1 1-1 1 .45 1 1zm-4 0c0 .55-.45 1-1 1s-1-.45-1-1 .45-1 1-1 1 .45 1 1zm-4 0c0 .55-.45 1-1 1s-1-.45-1-1 .45-1 1-1 1 .45 1 1zm-4 0c0 .55-.45 1-1 1s-1-.45-1-1 .45-1 1-1 1 .45 1 1zm-4 0c0 .55-.45 1-1 1s-1-.45-1-1 .45-1 1-1 1 .45 1 1zm-4 0c0 .55-.45 1-1 1s-1-.45-1-1 .45-1 1-1 1 .45 1 1zm-4 0c0 .55-.45 1-1 1s-1-.45-1-1 .45-1 1-1 1 .45 1 1zm-4 0c0 .55-.45 1-1 1s-1-.45-1-1 .45-1 1-1 1 .45 1 1zm-4 0c0 .55-.45 1-1 1s-1-.45-1-1 .45-1 1-1 1 .45 1 1zm-4 0c0 .55-.45 1-1 1s-1-.45-1-1 .45-1 1-1 1 .45 1 1zm-4 0c0 .55-.45 1-1 1s-1-.45-1-1 .45-1 1-1 1 .45 1 1zm-4 0c0 .55-.45 1-1 1s-1-.45-1-1 .45-1 1-1 1 .45 1 1zm-4 0c0 .55-.45 1-1 1s-1-.45-1-1 .45-1 1-1 1 .45 1 1zm-4 0c0 .55-.45 1-1 1s-1-.45-1-1 .45-1 1-1 1 .45 1 1zm-4 0c0 .55-.45 1-1 1s-1-.45-1-1 .45-1 1-1 1 .45 1 1zm-4 0c0 .55-.45 1-1 1s-1-.45-1-1 .45-1 1-1 1 .45 1 1zm-4 0c0 .55-.45 1-1 1s-1-.45-1-1 .45-1 1-1 1 .45 1 1zm-4 0c0 .55-.45 1-1 1s-1-.45-1-1 .45-1 1-1 1 .45 1 1zm-4 0c0 .55-.45 1-1 1s-1-.45-1-1 .45-1 1-1 1 .45 1 1zm-4 0c0 .55-.45 1-1 1s-1-.45-1-1 .45-1 1-1 1 .45 1 1zm-4 0c0 .55-.45 1-1 1s-1-.45-1-1 .45-1 1-1 1 .45 1 1zm-4 0c0 .55-.45 1-1 1s-1-.45-1-1 .45-1 1-1 1 .45 1 1zm-4 0c0 .55-.45 1-1 1s-1-.45-1-1 .45-1 1-1 1 .45 1 1zm-4 0c0 .55-.45 1-1 1s-1-.45-1-1 .45-1 1-1 1 .45 1 1zm-4 0c0 .55-.45 1-1 1s-1-.45-1-1 .45-1 1-1 1 .45 1 1zm-4 0c0 .55-.45 1-1 1s-1-.45-1-1 .45-1 1-1 1 .45 1 1zm-4 0c0 .55-.45 1-1 1s-1-.45-1-1 .45-1 1-1 1 .45 1 1zm-4 0c0 .55-.45 1-1 1s-1-.45-1-1 .45-1 1-1 1 .45 1 1zm-4 0c0 .55-.45 1-1 1s-1-.45-1-1 .45-1 1-1 1 .45 1 1zm-4 0c0 .55-.45 1-1 1s-1-.45-1-1 .45-1 1-1 1 .45 1 1zm-4 0c0 .55-.45 1-1 1s-1-.45-1-1 .45-1 1-1 1 .45 1 1zm-4 0c0 .55-.45 1-1 1s-1-.45-1-1 .45-1 1-1 1 .45 1 1zm-4 0c0 .55-.45 1-1 1s-1-.45-1-1 .45-1 1-1 1 .45 1 1zm-4 0c0 .55-.45 1-1 1s-1-.45-1-1 .45-1 1-1 1 .45 1 1zm-4 0c0 .55-.45 1-1 1s-1-.45-1-1 .45-1 1-1 1 .45 1 1zm0-4.07c0 .56-.45 1-1 1s-1-.44-1-1c0-.55.45-1 1-1s1 .45 1 1zm0-4.06c0 .55-.45 1-1 1s-1-.45-1-1c0-.56.45-1 1-1s1 .44 1 1zm0-4.07c0 .55-.45 1-1 1s-1-.45-1-1 .45-1 1-1 1 .45 1 1zm0-4.07c0 .56-.45 1-1 1s-1-.44-1-1c0-.55.45-1 1-1s1 .45 1 1zm0-4.06c0 .55-.45 1-1 1s-1-.45-1-1c0-.56.45-1 1-1s1 .44 1 1zm0-4.07c0 .55-.45 1-1 1s-1-.45-1-1 .45-1 1-1 1 .45 1 1zm0-4.07c0 .56-.45 1-1 1s-1-.44-1-1c0-.55.45-1 1-1s1 .45 1 1zm0-4.06c0 .55-.45 1-1 1s-1-.45-1-1c0-.56.45-1 1-1s1 .44 1 1zm0-4.07c0 .55-.45 1-1 1s-1-.45-1-1 .45-1 1-1 1 .45 1 1zm0-4.07c0 .56-.45 1-1 1s-1-.44-1-1c0-.55.45-1 1-1s1 .45 1 1zm0-4.06c0 .55-.45 1-1 1s-1-.45-1-1c0-.56.45-1 1-1s1 .44 1 1zm0-4.07c0 .55-.45 1-1 1s-1-.45-1-1 .45-1 1-1 1 .45 1 1zm0-4.07c0 .56-.45 1-1 1s-1-.44-1-1c0-.55.45-1 1-1s1 .45 1 1zm0-4.06c0 .55-.45 1-1 1s-1-.45-1-1c0-.56.45-1 1-1s1 .44 1 1zm0-4.07c0 .55-.45 1-1 1s-1-.45-1-1 .45-1 1-1 1 .45 1 1zm0-4.07c0 .56-.45 1-1 1s-1-.44-1-1c0-.55.45-1 1-1s1 .45 1 1zm0-4.06c0 .55-.45 1-1 1s-1-.45-1-1c0-.56.45-1 1-1s1 .44 1 1z"/><use xlink:href="#p" transform="matrix(1,0,0,1,814.9999999999997,368.4000000000117) translate(82.025 26.4)"/><use xlink:href="#n" transform="matrix(1,0,0,1,814.9999999999997,368.4000000000117) translate(28.150000000000006 48)"/><path d="M810 263.4h240v73.2H810z" fill="#fff"/><path d="M811 263.4c0 .55-.45 1-1 1s-1-.45-1-1 .45-1 1-1 1 .45 1 1zm4 0c0 .55-.45 1-1 1s-1-.45-1-1 .45-1 1-1 1 .45 1 1zm4 0c0 .55-.45 1-1 1s-1-.45-1-1 .45-1 1-1 1 .45 1 1zm4 0c0 .55-.45 1-1 1s-1-.45-1-1 .45-1 1-1 1 .45 1 1zm4 0c0 .55-.45 1-1 1s-1-.45-1-1 .45-1 1-1 1 .45 1 1zm4 0c0 .55-.45 1-1 1s-1-.45-1-1 .45-1 1-1 1 .45 1 1zm4 0c0 .55-.45 1-1 1s-1-.45-1-1 .45-1 1-1 1 .45 1 1zm4 0c0 .55-.45 1-1 1s-1-.45-1-1 .45-1 1-1 1 .45 1 1zm4 0c0 .55-.45 1-1 1s-1-.45-1-1 .45-1 1-1 1 .45 1 1zm4 0c0 .55-.45 1-1 1s-1-.45-1-1 .45-1 1-1 1 .45 1 1zm4 0c0 .55-.45 1-1 1s-1-.45-1-1 .45-1 1-1 1 .45 1 1zm4 0c0 .55-.45 1-1 1s-1-.45-1-1 .45-1 1-1 1 .45 1 1zm4 0c0 .55-.45 1-1 1s-1-.45-1-1 .45-1 1-1 1 .45 1 1zm4 0c0 .55-.45 1-1 1s-1-.45-1-1 .45-1 1-1 1 .45 1 1zm4 0c0 .55-.45 1-1 1s-1-.45-1-1 .45-1 1-1 1 .45 1 1zm4 0c0 .55-.45 1-1 1s-1-.45-1-1 .45-1 1-1 1 .45 1 1zm4 0c0 .55-.45 1-1 1s-1-.45-1-1 .45-1 1-1 1 .45 1 1zm4 0c0 .55-.45 1-1 1s-1-.45-1-1 .45-1 1-1 1 .45 1 1zm4 0c0 .55-.45 1-1 1s-1-.45-1-1 .45-1 1-1 1 .45 1 1zm4 0c0 .55-.45 1-1 1s-1-.45-1-1 .45-1 1-1 1 .45 1 1zm4 0c0 .55-.45 1-1 1s-1-.45-1-1 .45-1 1-1 1 .45 1 1zm4 0c0 .55-.45 1-1 1s-1-.45-1-1 .45-1 1-1 1 .45 1 1zm4 0c0 .55-.45 1-1 1s-1-.45-1-1 .45-1 1-1 1 .45 1 1zm4 0c0 .55-.45 1-1 1s-1-.45-1-1 .45-1 1-1 1 .45 1 1zm4 0c0 .55-.45 1-1 1s-1-.45-1-1 .45-1 1-1 1 .45 1 1zm4 0c0 .55-.45 1-1 1s-1-.45-1-1 .45-1 1-1 1 .45 1 1zm4 0c0 .55-.45 1-1 1s-1-.45-1-1 .45-1 1-1 1 .45 1 1zm4 0c0 .55-.45 1-1 1s-1-.45-1-1 .45-1 1-1 1 .45 1 1zm4 0c0 .55-.45 1-1 1s-1-.45-1-1 .45-1 1-1 1 .45 1 1zm4 0c0 .55-.45 1-1 1s-1-.45-1-1 .45-1 1-1 1 .45 1 1zm4 0c0 .55-.45 1-1 1s-1-.45-1-1 .45-1 1-1 1 .45 1 1zm4 0c0 .55-.45 1-1 1s-1-.45-1-1 .45-1 1-1 1 .45 1 1zm4 0c0 .55-.45 1-1 1s-1-.45-1-1 .45-1 1-1 1 .45 1 1zm4 0c0 .55-.45 1-1 1s-1-.45-1-1 .45-1 1-1 1 .45 1 1zm4 0c0 .55-.45 1-1 1s-1-.45-1-1 .45-1 1-1 1 .45 1 1zm4 0c0 .55-.45 1-1 1s-1-.45-1-1 .45-1 1-1 1 .45 1 1zm4 0c0 .55-.45 1-1 1s-1-.45-1-1 .45-1 1-1 1 .45 1 1zm4 0c0 .55-.45 1-1 1s-1-.45-1-1 .45-1 1-1 1 .45 1 1zm4 0c0 .55-.45 1-1 1s-1-.45-1-1 .45-1 1-1 1 .45 1 1zm4 0c0 .55-.45 1-1 1s-1-.45-1-1 .45-1 1-1 1 .45 1 1zm4 0c0 .55-.45 1-1 1s-1-.45-1-1 .45-1 1-1 1 .45 1 1zm4 0c0 .55-.45 1-1 1s-1-.45-1-1 .45-1 1-1 1 .45 1 1zm4 0c0 .55-.45 1-1 1s-1-.45-1-1 .45-1 1-1 1 .45 1 1zm4 0c0 .55-.45 1-1 1s-1-.45-1-1 .45-1 1-1 1 .45 1 1zm4 0c0 .55-.45 1-1 1s-1-.45-1-1 .45-1 1-1 1 .45 1 1zm4 0c0 .55-.45 1-1 1s-1-.45-1-1 .45-1 1-1 1 .45 1 1zm4 0c0 .55-.45 1-1 1s-1-.45-1-1 .45-1 1-1 1 .45 1 1zm4 0c0 .55-.45 1-1 1s-1-.45-1-1 .45-1 1-1 1 .45 1 1zm4 0c0 .55-.45 1-1 1s-1-.45-1-1 .45-1 1-1 1 .45 1 1zm4 0c0 .55-.45 1-1 1s-1-.45-1-1 .45-1 1-1 1 .45 1 1zm4 0c0 .55-.45 1-1 1s-1-.45-1-1 .45-1 1-1 1 .45 1 1zm4 0c0 .55-.45 1-1 1s-1-.45-1-1 .45-1 1-1 1 .45 1 1zm4 0c0 .55-.45 1-1 1s-1-.45-1-1 .45-1 1-1 1 .45 1 1zm4 0c0 .55-.45 1-1 1s-1-.45-1-1 .45-1 1-1 1 .45 1 1zm4 0c0 .55-.45 1-1 1s-1-.45-1-1 .45-1 1-1 1 .45 1 1zm4 0c0 .55-.45 1-1 1s-1-.45-1-1 .45-1 1-1 1 .45 1 1zm4 0c0 .55-.45 1-1 1s-1-.45-1-1 .45-1 1-1 1 .45 1 1zm4 0c0 .55-.45 1-1 1s-1-.45-1-1 .45-1 1-1 1 .45 1 1zm4 0c0 .55-.45 1-1 1s-1-.45-1-1 .45-1 1-1 1 .45 1 1zm4 0c0 .55-.45 1-1 1s-1-.45-1-1 .45-1 1-1 1 .45 1 1zm4 0c0 .55-.45 1-1 1s-1-.45-1-1 .45-1 1-1 1 .45 1 1zm0 4.07c0 .55-.45 1-1 1s-1-.45-1-1c0-.56.45-1 1-1s1 .44 1 1zm0 4.06c0 .56-.45 1-1 1s-1-.44-1-1c0-.55.45-1 1-1s1 .45 1 1zm0 4.07c0 .55-.45 1-1 1s-1-.45-1-1 .45-1 1-1 1 .45 1 1zm0 4.07c0 .55-.45 1-1 1s-1-.45-1-1c0-.56.45-1 1-1s1 .44 1 1zm0 4.06c0 .56-.45 1-1 1s-1-.44-1-1c0-.55.45-1 1-1s1 .45 1 1zm0 4.07c0 .55-.45 1-1 1s-1-.45-1-1 .45-1 1-1 1 .45 1 1zm0 4.07c0 .55-.45 1-1 1s-1-.45-1-1c0-.56.45-1 1-1s1 .44 1 1zm0 4.06c0 .56-.45 1-1 1s-1-.44-1-1c0-.55.45-1 1-1s1 .45 1 1zm0 4.07c0 .55-.45 1-1 1s-1-.45-1-1 .45-1 1-1 1 .45 1 1zm0 4.07c0 .55-.45 1-1 1s-1-.45-1-1c0-.56.45-1 1-1s1 .44 1 1zm0 4.06c0 .56-.45 1-1 1s-1-.44-1-1c0-.55.45-1 1-1s1 .45 1 1zm0 4.07c0 .55-.45 1-1 1s-1-.45-1-1 .45-1 1-1 1 .45 1 1zm0 4.07c0 .55-.45 1-1 1s-1-.45-1-1c0-.56.45-1 1-1s1 .44 1 1zm0 4.06c0 .56-.45 1-1 1s-1-.44-1-1c0-.55.45-1 1-1s1 .45 1 1zm0 4.07c0 .55-.45 1-1 1s-1-.45-1-1 .45-1 1-1 1 .45 1 1zm0 4.07c0 .55-.45 1-1 1s-1-.45-1-1c0-.56.45-1 1-1s1 .44 1 1zm0 4.06c0 .56-.45 1-1 1s-1-.44-1-1c0-.55.45-1 1-1s1 .45 1 1zm0 4.07c0 .55-.45 1-1 1s-1-.45-1-1 .45-1 1-1 1 .45 1 1zm-4 0c0 .55-.45 1-1 1s-1-.45-1-1 .45-1 1-1 1 .45 1 1zm-4 0c0 .55-.45 1-1 1s-1-.45-1-1 .45-1 1-1 1 .45 1 1zm-4 0c0 .55-.45 1-1 1s-1-.45-1-1 .45-1 1-1 1 .45 1 1zm-4 0c0 .55-.45 1-1 1s-1-.45-1-1 .45-1 1-1 1 .45 1 1zm-4 0c0 .55-.45 1-1 1s-1-.45-1-1 .45-1 1-1 1 .45 1 1zm-4 0c0 .55-.45 1-1 1s-1-.45-1-1 .45-1 1-1 1 .45 1 1zm-4 0c0 .55-.45 1-1 1s-1-.45-1-1 .45-1 1-1 1 .45 1 1zm-4 0c0 .55-.45 1-1 1s-1-.45-1-1 .45-1 1-1 1 .45 1 1zm-4 0c0 .55-.45 1-1 1s-1-.45-1-1 .45-1 1-1 1 .45 1 1zm-4 0c0 .55-.45 1-1 1s-1-.45-1-1 .45-1 1-1 1 .45 1 1zm-4 0c0 .55-.45 1-1 1s-1-.45-1-1 .45-1 1-1 1 .45 1 1zm-4 0c0 .55-.45 1-1 1s-1-.45-1-1 .45-1 1-1 1 .45 1 1zm-4 0c0 .55-.45 1-1 1s-1-.45-1-1 .45-1 1-1 1 .45 1 1zm-4 0c0 .55-.45 1-1 1s-1-.45-1-1 .45-1 1-1 1 .45 1 1zm-4 0c0 .55-.45 1-1 1s-1-.45-1-1 .45-1 1-1 1 .45 1 1zm-4 0c0 .55-.45 1-1 1s-1-.45-1-1 .45-1 1-1 1 .45 1 1zm-4 0c0 .55-.45 1-1 1s-1-.45-1-1 .45-1 1-1 1 .45 1 1zm-4 0c0 .55-.45 1-1 1s-1-.45-1-1 .45-1 1-1 1 .45 1 1zm-4 0c0 .55-.45 1-1 1s-1-.45-1-1 .45-1 1-1 1 .45 1 1zm-4 0c0 .55-.45 1-1 1s-1-.45-1-1 .45-1 1-1 1 .45 1 1zm-4 0c0 .55-.45 1-1 1s-1-.45-1-1 .45-1 1-1 1 .45 1 1zm-4 0c0 .55-.45 1-1 1s-1-.45-1-1 .45-1 1-1 1 .45 1 1zm-4 0c0 .55-.45 1-1 1s-1-.45-1-1 .45-1 1-1 1 .45 1 1zm-4 0c0 .55-.45 1-1 1s-1-.45-1-1 .45-1 1-1 1 .45 1 1zm-4 0c0 .55-.45 1-1 1s-1-.45-1-1 .45-1 1-1 1 .45 1 1zm-4 0c0 .55-.45 1-1 1s-1-.45-1-1 .45-1 1-1 1 .45 1 1zm-4 0c0 .55-.45 1-1 1s-1-.45-1-1 .45-1 1-1 1 .45 1 1zm-4 0c0 .55-.45 1-1 1s-1-.45-1-1 .45-1 1-1 1 .45 1 1zm-4 0c0 .55-.45 1-1 1s-1-.45-1-1 .45-1 1-1 1 .45 1 1zm-4 0c0 .55-.45 1-1 1s-1-.45-1-1 .45-1 1-1 1 .45 1 1zm-4 0c0 .55-.45 1-1 1s-1-.45-1-1 .45-1 1-1 1 .45 1 1zm-4 0c0 .55-.45 1-1 1s-1-.45-1-1 .45-1 1-1 1 .45 1 1zm-4 0c0 .55-.45 1-1 1s-1-.45-1-1 .45-1 1-1 1 .45 1 1zm-4 0c0 .55-.45 1-1 1s-1-.45-1-1 .45-1 1-1 1 .45 1 1zm-4 0c0 .55-.45 1-1 1s-1-.45-1-1 .45-1 1-1 1 .45 1 1zm-4 0c0 .55-.45 1-1 1s-1-.45-1-1 .45-1 1-1 1 .45 1 1zm-4 0c0 .55-.45 1-1 1s-1-.45-1-1 .45-1 1-1 1 .45 1 1zm-4 0c0 .55-.45 1-1 1s-1-.45-1-1 .45-1 1-1 1 .45 1 1zm-4 0c0 .55-.45 1-1 1s-1-.45-1-1 .45-1 1-1 1 .45 1 1zm-4 0c0 .55-.45 1-1 1s-1-.45-1-1 .45-1 1-1 1 .45 1 1zm-4 0c0 .55-.45 1-1 1s-1-.45-1-1 .45-1 1-1 1 .45 1 1zm-4 0c0 .55-.45 1-1 1s-1-.45-1-1 .45-1 1-1 1 .45 1 1zm-4 0c0 .55-.45 1-1 1s-1-.45-1-1 .45-1 1-1 1 .45 1 1zm-4 0c0 .55-.45 1-1 1s-1-.45-1-1 .45-1 1-1 1 .45 1 1zm-4 0c0 .55-.45 1-1 1s-1-.45-1-1 .45-1 1-1 1 .45 1 1zm-4 0c0 .55-.45 1-1 1s-1-.45-1-1 .45-1 1-1 1 .45 1 1zm-4 0c0 .55-.45 1-1 1s-1-.45-1-1 .45-1 1-1 1 .45 1 1zm-4 0c0 .55-.45 1-1 1s-1-.45-1-1 .45-1 1-1 1 .45 1 1zm-4 0c0 .55-.45 1-1 1s-1-.45-1-1 .45-1 1-1 1 .45 1 1zm-4 0c0 .55-.45 1-1 1s-1-.45-1-1 .45-1 1-1 1 .45 1 1zm-4 0c0 .55-.45 1-1 1s-1-.45-1-1 .45-1 1-1 1 .45 1 1zm-4 0c0 .55-.45 1-1 1s-1-.45-1-1 .45-1 1-1 1 .45 1 1zm-4 0c0 .55-.45 1-1 1s-1-.45-1-1 .45-1 1-1 1 .45 1 1zm-4 0c0 .55-.45 1-1 1s-1-.45-1-1 .45-1 1-1 1 .45 1 1zm-4 0c0 .55-.45 1-1 1s-1-.45-1-1 .45-1 1-1 1 .45 1 1zm-4 0c0 .55-.45 1-1 1s-1-.45-1-1 .45-1 1-1 1 .45 1 1zm-4 0c0 .55-.45 1-1 1s-1-.45-1-1 .45-1 1-1 1 .45 1 1zm-4 0c0 .55-.45 1-1 1s-1-.45-1-1 .45-1 1-1 1 .45 1 1zm-4 0c0 .55-.45 1-1 1s-1-.45-1-1 .45-1 1-1 1 .45 1 1zm-4 0c0 .55-.45 1-1 1s-1-.45-1-1 .45-1 1-1 1 .45 1 1zm0-4.07c0 .56-.45 1-1 1s-1-.44-1-1c0-.55.45-1 1-1s1 .45 1 1zm0-4.06c0 .55-.45 1-1 1s-1-.45-1-1c0-.56.45-1 1-1s1 .44 1 1zm0-4.07c0 .55-.45 1-1 1s-1-.45-1-1 .45-1 1-1 1 .45 1 1zm0-4.07c0 .56-.45 1-1 1s-1-.44-1-1c0-.55.45-1 1-1s1 .45 1 1zm0-4.06c0 .55-.45 1-1 1s-1-.45-1-1c0-.56.45-1 1-1s1 .44 1 1zm0-4.07c0 .55-.45 1-1 1s-1-.45-1-1 .45-1 1-1 1 .45 1 1zm0-4.07c0 .56-.45 1-1 1s-1-.44-1-1c0-.55.45-1 1-1s1 .45 1 1zm0-4.06c0 .55-.45 1-1 1s-1-.45-1-1c0-.56.45-1 1-1s1 .44 1 1zm0-4.07c0 .55-.45 1-1 1s-1-.45-1-1 .45-1 1-1 1 .45 1 1zm0-4.07c0 .56-.45 1-1 1s-1-.44-1-1c0-.55.45-1 1-1s1 .45 1 1zm0-4.06c0 .55-.45 1-1 1s-1-.45-1-1c0-.56.45-1 1-1s1 .44 1 1zm0-4.07c0 .55-.45 1-1 1s-1-.45-1-1 .45-1 1-1 1 .45 1 1zm0-4.07c0 .56-.45 1-1 1s-1-.44-1-1c0-.55.45-1 1-1s1 .45 1 1zm0-4.06c0 .55-.45 1-1 1s-1-.45-1-1c0-.56.45-1 1-1s1 .44 1 1zm0-4.07c0 .55-.45 1-1 1s-1-.45-1-1 .45-1 1-1 1 .45 1 1zm0-4.07c0 .56-.45 1-1 1s-1-.44-1-1c0-.55.45-1 1-1s1 .45 1 1zm0-4.06c0 .55-.45 1-1 1s-1-.45-1-1c0-.56.45-1 1-1s1 .44 1 1z"/><use xlink:href="#q" transform="matrix(1,0,0,1,814.9999999999997,268.4000000000117) translate(87.025 26.4)"/><use xlink:href="#n" transform="matrix(1,0,0,1,814.9999999999997,268.4000000000117) translate(28.150000000000006 48)"/><path d="M1051.85 200.53l113.88 70.7" stroke="#000" stroke-width="2" fill="none"/><path d="M1052.4 199.7l-1.06 1.7-.34-.22v-2.36z"/><path d="M1178.7 279.28l-14.57-3.6 4.9-7.87z" stroke="#000" stroke-width="2"/><path d="M1051.85 399.47L1166 328.93" stroke="#000" stroke-width="2" fill="none"/><path d="M1052.4 400.3l-1.4.88v-2.36l.35-.2z"/><path d="M1178.98 320.9l-9.7 11.45-4.87-7.9z" stroke="#000" stroke-width="2"/><path d="M1052 300h98.5" stroke="#000" stroke-width="2" fill="none"/><path d="M1052.03 301H1051v-2h1.03z"/><path d="M1165.76 300l-14.26 4.64v-9.28z" stroke="#000" stroke-width="2"/><path d="M0 163.4h290v73.2H0z" stroke="#000" stroke-width="2" fill="#fff"/><use xlink:href="#r" transform="matrix(1,0,0,1,5,168.4000000000117) translate(34.125000000000014 26.4)"/><use xlink:href="#s" transform="matrix(1,0,0,1,5,168.4000000000117) translate(17.099999999999994 48)"/><path d="M292 200h128.5" stroke="#000" stroke-width="2" fill="none"/><path d="M292.03 201H291v-2h1.03z"/><path d="M435.76 200l-14.26 4.64v-9.28z" stroke="#000" stroke-width="2"/><path d="M290.93 74.58l198.54 80.7" stroke="#000" stroke-width="2" fill="none"/><path d="M290.57 75.5l-3.23-1.3h3.77z"/><path d="M503.6 161.04l-14.95-1.08 3.5-8.6z" stroke="#000" stroke-width="2"/><path d="M550 75.2v65.3" stroke="#000" stroke-width="2" fill="none"/><path d="M551 75.23h-2V74.2h2z"/><path d="M550 155.76l-4.64-14.26h9.28z" stroke="#000" stroke-width="2"/><path d="M809.08 74.6l-189.5 81.94" stroke="#000" stroke-width="2" fill="none"/><path d="M809.46 75.52l-.58-1.32h3.64z"/><path d="M605.57 162.6l11.26-9.9 3.68 8.5z" stroke="#000" stroke-width="2"/><defs><path d="M4 7l51-268h42L46 7H4" id="t"/><path d="M137-138c1-29-70-34-71-4 15 46 118 7 119 86 1 83-164 76-172 9l43-7c4 19 20 25 44 25 33 8 57-30 24-41C81-84 22-81 20-136c-2-80 154-74 161-7" id="u"/><path d="M190-63c-7 42-38 67-86 67-59 0-84-38-90-98-12-110 154-137 174-36l-49 2c-2-19-15-32-35-32-30 0-35 28-38 64-6 74 65 87 74 30" id="v"/><path d="M133-34C117-15 103 5 69 4 32 3 11-16 11-54c-1-60 55-63 116-61 1-26-3-47-28-47-18 1-26 9-28 27l-52-2c7-38 36-58 82-57s74 22 75 68l1 82c-1 14 12 18 25 15v27c-30 8-71 5-69-32zm-48 3c29 0 43-24 42-57-32 0-66-3-65 30 0 17 8 27 23 27" id="w"/><path d="M135-194c87-1 58 113 63 194h-50c-7-57 23-157-34-157-59 0-34 97-39 157H25l-1-190h47c2 12-1 28 3 38 12-26 28-41 61-42" id="x"/><g id="a"><use transform="matrix(0.05,0,0,0.05,0,0)" xlink:href="#t"/><use transform="matrix(0.05,0,0,0.05,5,0)" xlink:href="#u"/><use transform="matrix(0.05,0,0,0.05,15,0)" xlink:href="#v"/><use transform="matrix(0.05,0,0,0.05,25,0)" xlink:href="#w"/><use transform="matrix(0.05,0,0,0.05,35,0)" xlink:href="#x"/></g><path fill="#0c7cba" d="M135-143c-3-34-86-38-87 0 15 53 115 12 119 90S17 21 10-45l28-5c4 36 97 45 98 0-10-56-113-15-118-90-4-57 82-63 122-42 12 7 21 19 24 35" id="y"/><path fill="#0c7cba" d="M100-194c63 0 86 42 84 106H49c0 40 14 67 53 68 26 1 43-12 49-29l28 8c-11 28-37 45-77 45C44 4 14-33 15-96c1-61 26-98 85-98zm52 81c6-60-76-77-97-28-3 7-6 17-6 28h103" id="z"/><path fill="#0c7cba" d="M117-194c89-4 53 116 60 194h-32v-121c0-31-8-49-39-48C34-167 62-67 57 0H25l-1-190h30c1 10-1 24 2 32 11-22 29-35 61-36" id="A"/><path fill="#0c7cba" d="M100-194c62-1 85 37 85 99 1 63-27 99-86 99S16-35 15-95c0-66 28-99 85-99zM99-20c44 1 53-31 53-75 0-43-8-75-51-75s-53 32-53 75 10 74 51 75" id="B"/><path fill="#0c7cba" d="M114-163C36-179 61-72 57 0H25l-1-190h30c1 12-1 29 2 39 6-27 23-49 58-41v29" id="C"/><path fill="#0c7cba" d="M-5 72V49h209v23H-5" id="D"/><path fill="#0c7cba" d="M210-169c-67 3-38 105-44 169h-31v-121c0-29-5-50-35-48C34-165 62-65 56 0H25l-1-190h30c1 10-1 24 2 32 10-44 99-50 107 0 11-21 27-35 58-36 85-2 47 119 55 194h-31v-121c0-29-5-49-35-48" id="E"/><path fill="#0c7cba" d="M177-190C167-65 218 103 67 71c-23-6-38-20-44-43l32-5c15 47 100 32 89-28v-30C133-14 115 1 83 1 29 1 15-40 15-95c0-56 16-97 71-98 29-1 48 16 59 35 1-10 0-23 2-32h30zM94-22c36 0 50-32 50-73 0-42-14-75-50-75-39 0-46 34-46 75s6 73 46 73" id="F"/><path fill="#0c7cba" d="M0 4l72-265h28L28 4H0" id="G"/><path fill="#0c7cba" d="M30 0v-248h33v221h125V0H30" id="H"/><path fill="#0c7cba" d="M141-36C126-15 110 5 73 4 37 3 15-17 15-53c-1-64 63-63 125-63 3-35-9-54-41-54-24 1-41 7-42 31l-33-3c5-37 33-52 76-52 45 0 72 20 72 64v82c-1 20 7 32 28 27v20c-31 9-61-2-59-35zM48-53c0 20 12 33 32 33 41-3 63-29 60-74-43 2-92-5-92 41" id="I"/><path fill="#0c7cba" d="M185-189c-5-48-123-54-124 2 14 75 158 14 163 119 3 78-121 87-175 55-17-10-28-26-33-46l33-7c5 56 141 63 141-1 0-78-155-14-162-118-5-82 145-84 179-34 5 7 8 16 11 25" id="J"/><path fill="#0c7cba" d="M96-169c-40 0-48 33-48 73s9 75 48 75c24 0 41-14 43-38l32 2c-6 37-31 61-74 61-59 0-76-41-82-99-10-93 101-131 147-64 4 7 5 14 7 22l-32 3c-4-21-16-35-41-35" id="K"/><g id="b"><use transform="matrix(0.05,0,0,0.05,0,0)" xlink:href="#y"/><use transform="matrix(0.05,0,0,0.05,9,0)" xlink:href="#z"/><use transform="matrix(0.05,0,0,0.05,19,0)" xlink:href="#A"/><use transform="matrix(0.05,0,0,0.05,29,0)" xlink:href="#y"/><use transform="matrix(0.05,0,0,0.05,38,0)" xlink:href="#B"/><use transform="matrix(0.05,0,0,0.05,48,0)" xlink:href="#C"/><use transform="matrix(0.05,0,0,0.05,53.95,0)" xlink:href="#D"/><use transform="matrix(0.05,0,0,0.05,63.95,0)" xlink:href="#E"/><use transform="matrix(0.05,0,0,0.05,78.9,0)" xlink:href="#y"/><use transform="matrix(0.05,0,0,0.05,87.9,0)" xlink:href="#F"/><use transform="matrix(0.05,0,0,0.05,97.9,0)" xlink:href="#y"/><use transform="matrix(0.05,0,0,0.05,106.9,0)" xlink:href="#G"/><use transform="matrix(0.05,0,0,0.05,111.9,0)" xlink:href="#H"/><use transform="matrix(0.05,0,0,0.05,121.9,0)" xlink:href="#I"/><use transform="matrix(0.05,0,0,0.05,131.9,0)" xlink:href="#y"/><use transform="matrix(0.05,0,0,0.05,140.9,0)" xlink:href="#z"/><use transform="matrix(0.05,0,0,0.05,150.9,0)" xlink:href="#C"/><use transform="matrix(0.05,0,0,0.05,156.85,0)" xlink:href="#J"/><use transform="matrix(0.05,0,0,0.05,168.85,0)" xlink:href="#K"/><use transform="matrix(0.05,0,0,0.05,177.85,0)" xlink:href="#I"/><use transform="matrix(0.05,0,0,0.05,187.85,0)" xlink:href="#A"/></g><path d="M220-157c-53 9-28 100-34 157h-49v-107c1-27-5-49-29-50C55-147 81-57 75 0H25l-1-190h47c2 12-1 28 3 38 10-53 101-56 108 0 13-22 24-43 59-42 82 1 51 116 57 194h-49v-107c-1-25-5-48-29-50" id="L"/><path d="M135-194c53 0 70 44 70 98 0 56-19 98-73 100-31 1-45-17-59-34 3 33 2 69 2 105H25l-1-265h48c2 10 0 23 3 31 11-24 29-35 60-35zM114-30c33 0 39-31 40-66 0-38-9-64-40-64-56 0-55 130 0 130" id="M"/><g id="c"><use transform="matrix(0.05,0,0,0.05,0,0)" xlink:href="#t"/><use transform="matrix(0.05,0,0,0.05,5,0)" xlink:href="#L"/><use transform="matrix(0.05,0,0,0.05,21,0)" xlink:href="#w"/><use transform="matrix(0.05,0,0,0.05,31,0)" xlink:href="#M"/></g><path fill="#0c7cba" d="M108 0H70L1-190h34L89-25l56-165h34" id="N"/><path fill="#0c7cba" d="M140-251c81 0 123 46 123 126C263-46 219 4 140 4 59 4 17-45 17-125s42-126 123-126zm0 227c63 0 89-41 89-101s-29-99-89-99c-61 0-89 39-89 99S79-25 140-24" id="O"/><path fill="#0c7cba" d="M84 4C-5 8 30-112 23-190h32v120c0 31 7 50 39 49 72-2 45-101 50-169h31l1 190h-30c-1-10 1-25-2-33-11 22-28 36-60 37" id="P"/><path fill="#0c7cba" d="M115-194c55 1 70 41 70 98S169 2 115 4C84 4 66-9 55-30l1 105H24l-1-265h31l2 30c10-21 28-34 59-34zm-8 174c40 0 45-34 45-75s-6-73-45-74c-42 0-51 32-51 76 0 43 10 73 51 73" id="Q"/><path fill="#0c7cba" d="M179-190L93 31C79 59 56 82 12 73V49c39 6 53-20 64-50L1-190h34L92-34l54-156h33" id="R"/><path fill="#0c7cba" d="M143 4C61 4 22-44 18-125c-5-107 100-154 193-111 17 8 29 25 37 43l-32 9c-13-25-37-40-76-40-61 0-88 39-88 99 0 61 29 100 91 101 35 0 62-11 79-27v-45h-74v-28h105v86C228-13 192 4 143 4" id="S"/><path fill="#0c7cba" d="M24-231v-30h32v30H24zM24 0v-190h32V0H24" id="T"/><path fill="#0c7cba" d="M85-194c31 0 48 13 60 33l-1-100h32l1 261h-30c-2-10 0-23-3-31C134-8 116 4 85 4 32 4 16-35 15-94c0-66 23-100 70-100zm9 24c-40 0-46 34-46 75 0 40 6 74 45 74 42 0 51-32 51-76 0-42-9-74-50-73" id="U"/><g id="d"><use transform="matrix(0.05,0,0,0.05,0,0)" xlink:href="#A"/><use transform="matrix(0.05,0,0,0.05,10,0)" xlink:href="#I"/><use transform="matrix(0.05,0,0,0.05,20,0)" xlink:href="#N"/><use transform="matrix(0.05,0,0,0.05,29,0)" xlink:href="#D"/><use transform="matrix(0.05,0,0,0.05,39,0)" xlink:href="#E"/><use transform="matrix(0.05,0,0,0.05,53.95,0)" xlink:href="#y"/><use transform="matrix(0.05,0,0,0.05,62.95,0)" xlink:href="#F"/><use transform="matrix(0.05,0,0,0.05,72.95,0)" xlink:href="#y"/><use transform="matrix(0.05,0,0,0.05,81.95,0)" xlink:href="#G"/><use transform="matrix(0.05,0,0,0.05,86.95,0)" xlink:href="#O"/><use transform="matrix(0.05,0,0,0.05,100.95,0)" xlink:href="#K"/><use transform="matrix(0.05,0,0,0.05,109.95,0)" xlink:href="#K"/><use transform="matrix(0.05,0,0,0.05,118.95,0)" xlink:href="#P"/><use transform="matrix(0.05,0,0,0.05,128.95,0)" xlink:href="#Q"/><use transform="matrix(0.05,0,0,0.05,138.95,0)" xlink:href="#I"/><use transform="matrix(0.05,0,0,0.05,148.95,0)" xlink:href="#A"/><use transform="matrix(0.05,0,0,0.05,158.95,0)" xlink:href="#K"/><use transform="matrix(0.05,0,0,0.05,167.95,0)" xlink:href="#R"/><use transform="matrix(0.05,0,0,0.05,176.95,0)" xlink:href="#S"/><use transform="matrix(0.05,0,0,0.05,190.95,0)" xlink:href="#C"/><use transform="matrix(0.05,0,0,0.05,196.89999999999998,0)" xlink:href="#T"/><use transform="matrix(0.05,0,0,0.05,200.84999999999997,0)" xlink:href="#U"/></g><path d="M110-194c64 0 96 36 96 99 0 64-35 99-97 99-61 0-95-36-95-99 0-62 34-99 96-99zm-1 164c35 0 45-28 45-65 0-40-10-65-43-65-34 0-45 26-45 65 0 36 10 65 43 65" id="V"/><path d="M88-194c31-1 46 15 58 34l-1-101h50l1 261h-48c-2-10 0-23-3-31C134-8 116 4 84 4 32 4 16-41 15-95c0-56 19-97 73-99zm17 164c33 0 40-30 41-66 1-37-9-64-41-64s-38 30-39 65c0 43 13 65 39 65" id="W"/><path d="M185-48c-13 30-37 53-82 52C43 2 14-33 14-96s30-98 90-98c62 0 83 45 84 108H66c0 31 8 55 39 56 18 0 30-7 34-22zm-45-69c5-46-57-63-70-21-2 6-4 13-4 21h74" id="X"/><path d="M115-3C79 11 28 4 28-45v-112H4v-33h27l15-45h31v45h36v33H77v99c-1 23 16 31 38 25v30" id="Y"/><path d="M135-150c-39-12-60 13-60 57V0H25l-1-190h47c2 13-1 29 3 40 6-28 27-53 61-41v41" id="Z"/><path d="M123 10C108 53 80 86 19 72V37c35 8 53-11 59-39L3-190h52l48 148c12-52 28-100 44-148h51" id="aa"/><path d="M121-226c-27-7-43 5-38 36h38v33H83V0H34v-157H6v-33h28c-9-59 32-81 87-68v32" id="ab"/><path d="M25-224v-37h50v37H25zM25 0v-190h50V0H25" id="ac"/><path d="M25 0v-261h50V0H25" id="ad"/><g id="e"><use transform="matrix(0.05,0,0,0.05,0,0)" xlink:href="#t"/><use transform="matrix(0.05,0,0,0.05,5,0)" xlink:href="#V"/><use transform="matrix(0.05,0,0,0.05,15.950000000000001,0)" xlink:href="#W"/><use transform="matrix(0.05,0,0,0.05,26.900000000000002,0)" xlink:href="#V"/><use transform="matrix(0.05,0,0,0.05,37.85,0)" xlink:href="#L"/><use transform="matrix(0.05,0,0,0.05,53.85,0)" xlink:href="#X"/><use transform="matrix(0.05,0,0,0.05,63.85,0)" xlink:href="#Y"/><use transform="matrix(0.05,0,0,0.05,69.8,0)" xlink:href="#Z"/><use transform="matrix(0.05,0,0,0.05,76.8,0)" xlink:href="#aa"/><use transform="matrix(0.05,0,0,0.05,86.8,0)" xlink:href="#t"/><use transform="matrix(0.05,0,0,0.05,91.8,0)" xlink:href="#ab"/><use transform="matrix(0.05,0,0,0.05,97.75,0)" xlink:href="#ac"/><use transform="matrix(0.05,0,0,0.05,102.75,0)" xlink:href="#ad"/><use transform="matrix(0.05,0,0,0.05,107.75,0)" xlink:href="#Y"/><use transform="matrix(0.05,0,0,0.05,113.7,0)" xlink:href="#X"/><use transform="matrix(0.05,0,0,0.05,123.7,0)" xlink:href="#Z"/><use transform="matrix(0.05,0,0,0.05,130.7,0)" xlink:href="#X"/><use transform="matrix(0.05,0,0,0.05,140.7,0)" xlink:href="#W"/></g><path fill="#0c7cba" d="M59-47c-2 24 18 29 38 22v24C64 9 27 4 27-40v-127H5v-23h24l9-43h21v43h35v23H59v120" id="ae"/><g id="f"><use transform="matrix(0.05,0,0,0.05,0,0)" xlink:href="#A"/><use transform="matrix(0.05,0,0,0.05,10,0)" xlink:href="#I"/><use transform="matrix(0.05,0,0,0.05,20,0)" xlink:href="#N"/><use transform="matrix(0.05,0,0,0.05,29,0)" xlink:href="#D"/><use transform="matrix(0.05,0,0,0.05,39,0)" xlink:href="#E"/><use transform="matrix(0.05,0,0,0.05,53.95,0)" xlink:href="#y"/><use transform="matrix(0.05,0,0,0.05,62.95,0)" xlink:href="#F"/><use transform="matrix(0.05,0,0,0.05,72.95,0)" xlink:href="#y"/><use transform="matrix(0.05,0,0,0.05,81.95,0)" xlink:href="#G"/><use transform="matrix(0.05,0,0,0.05,86.95,0)" xlink:href="#B"/><use transform="matrix(0.05,0,0,0.05,96.95,0)" xlink:href="#U"/><use transform="matrix(0.05,0,0,0.05,106.95,0)" xlink:href="#B"/><use transform="matrix(0.05,0,0,0.05,116.95,0)" xlink:href="#E"/><use transform="matrix(0.05,0,0,0.05,131.9,0)" xlink:href="#z"/><use transform="matrix(0.05,0,0,0.05,141.9,0)" xlink:href="#ae"/><use transform="matrix(0.05,0,0,0.05,146.9,0)" xlink:href="#C"/><use transform="matrix(0.05,0,0,0.05,152.85,0)" xlink:href="#R"/></g><path d="M128 0H69L1-190h53L99-40l48-150h52" id="af"/><path d="M-4 44V30h207v14H-4" id="ag"/><path d="M135-194c52 0 70 43 70 98 0 56-19 99-73 100-30 1-46-15-58-35L72 0H24l1-261h50v104c11-23 29-37 60-37zM114-30c31 0 40-27 40-66 0-37-7-63-39-63s-41 28-41 65c0 36 8 64 40 64" id="ah"/><g id="g"><use transform="matrix(0.06172839506172839,0,0,0.06172839506172839,0,0)" xlink:href="#t"/><use transform="matrix(0.06172839506172839,0,0,0.06172839506172839,6.172839506172839,0)" xlink:href="#L"/><use transform="matrix(0.06172839506172839,0,0,0.06172839506172839,25.925925925925924,0)" xlink:href="#V"/><use transform="matrix(0.06172839506172839,0,0,0.06172839506172839,39.44444444444444,0)" xlink:href="#af"/><use transform="matrix(0.06172839506172839,0,0,0.06172839506172839,51.79012345679012,0)" xlink:href="#X"/><use transform="matrix(0.06172839506172839,0,0,0.06172839506172839,64.1358024691358,0)" xlink:href="#ag"/><use transform="matrix(0.06172839506172839,0,0,0.06172839506172839,76.48148148148148,0)" xlink:href="#ah"/><use transform="matrix(0.06172839506172839,0,0,0.06172839506172839,90,0)" xlink:href="#w"/><use transform="matrix(0.06172839506172839,0,0,0.06172839506172839,102.34567901234568,0)" xlink:href="#u"/><use transform="matrix(0.06172839506172839,0,0,0.06172839506172839,114.69135802469137,0)" xlink:href="#X"/></g><path d="M231 0h-52l-39-155L100 0H48L-1-190h46L77-45c9-52 24-97 36-145h53l37 145 32-145h46" id="ai"/><path d="M85 4C-2 5 27-109 22-190h50c7 57-23 150 33 157 60-5 35-97 40-157h50l1 190h-47c-2-12 1-28-3-38-12 25-28 42-61 42" id="aj"/><path d="M144 0l-44-69L55 0H2l70-98-66-92h53l41 62 40-62h54l-67 91 71 99h-54" id="ak"/><g id="h"><use transform="matrix(0.06172839506172839,0,0,0.06172839506172839,0,0)" xlink:href="#t"/><use transform="matrix(0.06172839506172839,0,0,0.06172839506172839,6.172839506172839,0)" xlink:href="#Y"/><use transform="matrix(0.06172839506172839,0,0,0.06172839506172839,13.518518518518519,0)" xlink:href="#ai"/><use transform="matrix(0.06172839506172839,0,0,0.06172839506172839,30.80246913580247,0)" xlink:href="#ac"/><use transform="matrix(0.06172839506172839,0,0,0.06172839506172839,36.97530864197531,0)" xlink:href="#u"/><use transform="matrix(0.06172839506172839,0,0,0.06172839506172839,49.32098765432099,0)" xlink:href="#Y"/><use transform="matrix(0.06172839506172839,0,0,0.06172839506172839,56.666666666666664,0)" xlink:href="#ag"/><use transform="matrix(0.06172839506172839,0,0,0.06172839506172839,69.01234567901234,0)" xlink:href="#L"/><use transform="matrix(0.06172839506172839,0,0,0.06172839506172839,88.76543209876543,0)" xlink:href="#aj"/><use transform="matrix(0.06172839506172839,0,0,0.06172839506172839,102.28395061728395,0)" xlink:href="#ak"/></g><g id="i"><use transform="matrix(0.06172839506172839,0,0,0.06172839506172839,0,0)" xlink:href="#Y"/><use transform="matrix(0.06172839506172839,0,0,0.06172839506172839,7.345679012345679,0)" xlink:href="#ab"/></g><path d="M210-169c-67 3-38 105-44 169h-31v-121c0-29-5-50-35-48C34-165 62-65 56 0H25l-1-190h30c1 10-1 24 2 32 10-44 99-50 107 0 11-21 27-35 58-36 85-2 47 119 55 194h-31v-121c0-29-5-49-35-48" id="al"/><path d="M141-36C126-15 110 5 73 4 37 3 15-17 15-53c-1-64 63-63 125-63 3-35-9-54-41-54-24 1-41 7-42 31l-33-3c5-37 33-52 76-52 45 0 72 20 72 64v82c-1 20 7 32 28 27v20c-31 9-61-2-59-35zM48-53c0 20 12 33 32 33 41-3 63-29 60-74-43 2-92-5-92 41" id="am"/><path d="M115-194c55 1 70 41 70 98S169 2 115 4C84 4 66-9 55-30l1 105H24l-1-265h31l2 30c10-21 28-34 59-34zm-8 174c40 0 45-34 45-75s-6-73-45-74c-42 0-51 32-51 76 0 43 10 73 51 73" id="an"/><path d="M16-82v-28h88v28H16" id="ao"/><path d="M18-27v-27l151-64-151-65v-27l175 74v36" id="ap"/><path d="M100-194c62-1 85 37 85 99 1 63-27 99-86 99S16-35 15-95c0-66 28-99 85-99zM99-20c44 1 53-31 53-75 0-43-8-75-51-75s-53 32-53 75 10 74 51 75" id="aq"/><path d="M85-194c31 0 48 13 60 33l-1-100h32l1 261h-30c-2-10 0-23-3-31C134-8 116 4 85 4 32 4 16-35 15-94c0-66 23-100 70-100zm9 24c-40 0-46 34-46 75 0 40 6 74 45 74 42 0 51-32 51-76 0-42-9-74-50-73" id="ar"/><g id="j"><use transform="matrix(0.05,0,0,0.05,0,0)" xlink:href="#al"/><use transform="matrix(0.05,0,0,0.05,14.950000000000001,0)" xlink:href="#am"/><use transform="matrix(0.05,0,0,0.05,24.950000000000003,0)" xlink:href="#an"/><use transform="matrix(0.05,0,0,0.05,34.95,0)" xlink:href="#ao"/><use transform="matrix(0.05,0,0,0.05,40.900000000000006,0)" xlink:href="#ap"/><use transform="matrix(0.05,0,0,0.05,51.400000000000006,0)" xlink:href="#aq"/><use transform="matrix(0.05,0,0,0.05,61.400000000000006,0)" xlink:href="#ar"/><use transform="matrix(0.05,0,0,0.05,71.4,0)" xlink:href="#aq"/><use transform="matrix(0.05,0,0,0.05,81.4,0)" xlink:href="#al"/></g><path d="M115-194c53 0 69 39 70 98 0 66-23 100-70 100C84 3 66-7 56-30L54 0H23l1-261h32v101c10-23 28-34 59-34zm-8 174c40 0 45-34 45-75 0-40-5-75-45-74-42 0-51 32-51 76 0 43 10 73 51 73" id="as"/><path d="M135-143c-3-34-86-38-87 0 15 53 115 12 119 90S17 21 10-45l28-5c4 36 97 45 98 0-10-56-113-15-118-90-4-57 82-63 122-42 12 7 21 19 24 35" id="at"/><path d="M100-194c63 0 86 42 84 106H49c0 40 14 67 53 68 26 1 43-12 49-29l28 8c-11 28-37 45-77 45C44 4 14-33 15-96c1-61 26-98 85-98zm52 81c6-60-76-77-97-28-3 7-6 17-6 28h103" id="au"/><path d="M-5 72V49h209v23H-5" id="av"/><path d="M24 0v-261h32V0H24" id="aw"/><path d="M24-231v-30h32v30H24zM24 0v-190h32V0H24" id="ax"/><path d="M117-194c89-4 53 116 60 194h-32v-121c0-31-8-49-39-48C34-167 62-67 57 0H25l-1-190h30c1 10-1 24 2 32 11-22 29-35 61-36" id="ay"/><path d="M143 0L79-87 56-68V0H24v-261h32v163l83-92h37l-77 82L181 0h-38" id="az"/><g id="k"><use transform="matrix(0.05,0,0,0.05,0,0)" xlink:href="#aq"/><use transform="matrix(0.05,0,0,0.05,10,0)" xlink:href="#ar"/><use transform="matrix(0.05,0,0,0.05,20,0)" xlink:href="#aq"/><use transform="matrix(0.05,0,0,0.05,30,0)" xlink:href="#al"/><use transform="matrix(0.05,0,0,0.05,44.95,0)" xlink:href="#ao"/><use transform="matrix(0.05,0,0,0.05,50.900000000000006,0)" xlink:href="#ap"/><use transform="matrix(0.05,0,0,0.05,61.400000000000006,0)" xlink:href="#as"/><use transform="matrix(0.05,0,0,0.05,71.4,0)" xlink:href="#am"/><use transform="matrix(0.05,0,0,0.05,81.4,0)" xlink:href="#at"/><use transform="matrix(0.05,0,0,0.05,90.4,0)" xlink:href="#au"/><use transform="matrix(0.05,0,0,0.05,100.4,0)" xlink:href="#av"/><use transform="matrix(0.05,0,0,0.05,110.4,0)" xlink:href="#aw"/><use transform="matrix(0.05,0,0,0.05,114.35000000000001,0)" xlink:href="#ax"/><use transform="matrix(0.05,0,0,0.05,118.30000000000001,0)" xlink:href="#ay"/><use transform="matrix(0.05,0,0,0.05,128.3,0)" xlink:href="#az"/></g><path d="M114-163C36-179 61-72 57 0H25l-1-190h30c1 12-1 29 2 39 6-27 23-49 58-41v29" id="aA"/><path d="M101-234c-31-9-42 10-38 44h38v23H63V0H32v-167H5v-23h27c-7-52 17-82 69-68v24" id="aB"/><g id="l"><use transform="matrix(0.05,0,0,0.05,0,0)" xlink:href="#as"/><use transform="matrix(0.05,0,0,0.05,10,0)" xlink:href="#am"/><use transform="matrix(0.05,0,0,0.05,20,0)" xlink:href="#at"/><use transform="matrix(0.05,0,0,0.05,29,0)" xlink:href="#au"/><use transform="matrix(0.05,0,0,0.05,39,0)" xlink:href="#av"/><use transform="matrix(0.05,0,0,0.05,49,0)" xlink:href="#aw"/><use transform="matrix(0.05,0,0,0.05,52.95,0)" xlink:href="#ax"/><use transform="matrix(0.05,0,0,0.05,56.900000000000006,0)" xlink:href="#ay"/><use transform="matrix(0.05,0,0,0.05,66.9,0)" xlink:href="#az"/><use transform="matrix(0.05,0,0,0.05,75.9,0)" xlink:href="#ao"/><use transform="matrix(0.05,0,0,0.05,81.85000000000001,0)" xlink:href="#ap"/><use transform="matrix(0.05,0,0,0.05,92.35000000000001,0)" xlink:href="#aw"/><use transform="matrix(0.05,0,0,0.05,96.30000000000001,0)" xlink:href="#am"/><use transform="matrix(0.05,0,0,0.05,106.30000000000001,0)" xlink:href="#at"/><use transform="matrix(0.05,0,0,0.05,115.30000000000001,0)" xlink:href="#au"/><use transform="matrix(0.05,0,0,0.05,125.30000000000001,0)" xlink:href="#aA"/><use transform="matrix(0.05,0,0,0.05,131.25,0)" xlink:href="#av"/><use transform="matrix(0.05,0,0,0.05,141.25,0)" xlink:href="#aB"/><use transform="matrix(0.05,0,0,0.05,146.25,0)" xlink:href="#aA"/><use transform="matrix(0.05,0,0,0.05,152.2,0)" xlink:href="#am"/><use transform="matrix(0.05,0,0,0.05,162.2,0)" xlink:href="#al"/><use transform="matrix(0.05,0,0,0.05,177.14999999999998,0)" xlink:href="#au"/></g><g id="m"><use transform="matrix(0.05,0,0,0.05,0,0)" xlink:href="#t"/><use transform="matrix(0.05,0,0,0.05,5,0)" xlink:href="#x"/><use transform="matrix(0.05,0,0,0.05,15.950000000000001,0)" xlink:href="#w"/><use transform="matrix(0.05,0,0,0.05,25.950000000000003,0)" xlink:href="#af"/><use transform="matrix(0.05,0,0,0.05,35.95,0)" xlink:href="#ag"/><use transform="matrix(0.05,0,0,0.05,45.95,0)" xlink:href="#v"/><use transform="matrix(0.05,0,0,0.05,55.95,0)" xlink:href="#L"/><use transform="matrix(0.05,0,0,0.05,71.95,0)" xlink:href="#W"/></g><path fill="#0c7cba" d="M127-220V0H93v-220H8v-28h204v28h-85" id="aC"/><path fill="#0c7cba" d="M206 0h-36l-40-164L89 0H53L-1-190h32L70-26l43-164h34l41 164 42-164h31" id="aD"/><g id="n"><use transform="matrix(0.05,0,0,0.05,0,0)" xlink:href="#F"/><use transform="matrix(0.05,0,0,0.05,10,0)" xlink:href="#z"/><use transform="matrix(0.05,0,0,0.05,20,0)" xlink:href="#B"/><use transform="matrix(0.05,0,0,0.05,30,0)" xlink:href="#E"/><use transform="matrix(0.05,0,0,0.05,44.95,0)" xlink:href="#z"/><use transform="matrix(0.05,0,0,0.05,54.95,0)" xlink:href="#ae"/><use transform="matrix(0.05,0,0,0.05,59.95,0)" xlink:href="#C"/><use transform="matrix(0.05,0,0,0.05,65.9,0)" xlink:href="#R"/><use transform="matrix(0.05,0,0,0.05,74.9,0)" xlink:href="#D"/><use transform="matrix(0.05,0,0,0.05,84.9,0)" xlink:href="#E"/><use transform="matrix(0.05,0,0,0.05,99.85000000000001,0)" xlink:href="#y"/><use transform="matrix(0.05,0,0,0.05,108.85000000000001,0)" xlink:href="#F"/><use transform="matrix(0.05,0,0,0.05,118.85000000000001,0)" xlink:href="#y"/><use transform="matrix(0.05,0,0,0.05,127.85000000000001,0)" xlink:href="#G"/><use transform="matrix(0.05,0,0,0.05,132.85000000000002,0)" xlink:href="#aC"/><use transform="matrix(0.05,0,0,0.05,142.8,0)" xlink:href="#aD"/><use transform="matrix(0.05,0,0,0.05,155.75,0)" xlink:href="#T"/><use transform="matrix(0.05,0,0,0.05,159.7,0)" xlink:href="#y"/><use transform="matrix(0.05,0,0,0.05,168.7,0)" xlink:href="#ae"/></g><g id="o"><use transform="matrix(0.05,0,0,0.05,0,0)" xlink:href="#t"/><use transform="matrix(0.05,0,0,0.05,5,0)" xlink:href="#v"/><use transform="matrix(0.05,0,0,0.05,15,0)" xlink:href="#L"/><use transform="matrix(0.05,0,0,0.05,31,0)" xlink:href="#W"/><use transform="matrix(0.05,0,0,0.05,41.95,0)" xlink:href="#ag"/><use transform="matrix(0.05,0,0,0.05,51.95,0)" xlink:href="#af"/><use transform="matrix(0.05,0,0,0.05,61.95,0)" xlink:href="#X"/><use transform="matrix(0.05,0,0,0.05,71.95,0)" xlink:href="#ad"/></g><path d="M25-224v-37h50v37H25zM75 22c2 45-34 59-81 51V38c22 5 31-5 31-27v-201h50V22" id="aE"/><g id="p"><use transform="matrix(0.05,0,0,0.05,0,0)" xlink:href="#t"/><use transform="matrix(0.05,0,0,0.05,5,0)" xlink:href="#aE"/><use transform="matrix(0.05,0,0,0.05,10,0)" xlink:href="#V"/><use transform="matrix(0.05,0,0,0.05,20.950000000000003,0)" xlink:href="#aa"/><use transform="matrix(0.05,0,0,0.05,30.950000000000003,0)" xlink:href="#ag"/><use transform="matrix(0.05,0,0,0.05,40.95,0)" xlink:href="#af"/><use transform="matrix(0.05,0,0,0.05,50.95,0)" xlink:href="#X"/><use transform="matrix(0.05,0,0,0.05,60.95,0)" xlink:href="#ad"/></g><g id="q"><use transform="matrix(0.05,0,0,0.05,0,0)" xlink:href="#t"/><use transform="matrix(0.05,0,0,0.05,5,0)" xlink:href="#aj"/><use transform="matrix(0.05,0,0,0.05,15.950000000000001,0)" xlink:href="#ac"/><use transform="matrix(0.05,0,0,0.05,20.950000000000003,0)" xlink:href="#ag"/><use transform="matrix(0.05,0,0,0.05,30.950000000000003,0)" xlink:href="#af"/><use transform="matrix(0.05,0,0,0.05,40.95,0)" xlink:href="#X"/><use transform="matrix(0.05,0,0,0.05,50.95,0)" xlink:href="#ad"/></g><path d="M195-6C206 82 75 100 31 46c-4-6-6-13-8-21l49-6c3 16 16 24 34 25 40 0 42-37 40-79-11 22-30 35-61 35-53 0-70-43-70-97 0-56 18-96 73-97 30 0 46 14 59 34l2-30h47zm-90-29c32 0 41-27 41-63 0-35-9-62-40-62-32 0-39 29-40 63 0 36 9 62 39 62" id="aF"/><g id="r"><use transform="matrix(0.05,0,0,0.05,0,0)" xlink:href="#t"/><use transform="matrix(0.05,0,0,0.05,5,0)" xlink:href="#L"/><use transform="matrix(0.05,0,0,0.05,21,0)" xlink:href="#V"/><use transform="matrix(0.05,0,0,0.05,31.950000000000003,0)" xlink:href="#af"/><use transform="matrix(0.05,0,0,0.05,41.95,0)" xlink:href="#X"/><use transform="matrix(0.05,0,0,0.05,51.95,0)" xlink:href="#ag"/><use transform="matrix(0.05,0,0,0.05,61.95,0)" xlink:href="#ah"/><use transform="matrix(0.05,0,0,0.05,72.9,0)" xlink:href="#w"/><use transform="matrix(0.05,0,0,0.05,82.9,0)" xlink:href="#u"/><use transform="matrix(0.05,0,0,0.05,92.9,0)" xlink:href="#X"/><use transform="matrix(0.05,0,0,0.05,102.9,0)" xlink:href="#ag"/><use transform="matrix(0.05,0,0,0.05,112.9,0)" xlink:href="#u"/><use transform="matrix(0.05,0,0,0.05,122.9,0)" xlink:href="#ac"/><use transform="matrix(0.05,0,0,0.05,127.9,0)" xlink:href="#L"/><use transform="matrix(0.05,0,0,0.05,143.9,0)" xlink:href="#M"/><use transform="matrix(0.05,0,0,0.05,154.85,0)" xlink:href="#ad"/><use transform="matrix(0.05,0,0,0.05,159.85,0)" xlink:href="#X"/><use transform="matrix(0.05,0,0,0.05,169.85,0)" xlink:href="#t"/><use transform="matrix(0.05,0,0,0.05,174.85,0)" xlink:href="#aF"/><use transform="matrix(0.05,0,0,0.05,185.79999999999998,0)" xlink:href="#V"/><use transform="matrix(0.05,0,0,0.05,196.74999999999997,0)" xlink:href="#w"/><use transform="matrix(0.05,0,0,0.05,206.74999999999997,0)" xlink:href="#ad"/></g><path fill="#0c7cba" d="M30-248c87 1 191-15 191 75 0 78-77 80-158 76V0H30v-248zm33 125c57 0 124 11 124-50 0-59-68-47-124-48v98" id="aG"/><g id="s"><use transform="matrix(0.05,0,0,0.05,0,0)" xlink:href="#F"/><use transform="matrix(0.05,0,0,0.05,10,0)" xlink:href="#z"/><use transform="matrix(0.05,0,0,0.05,20,0)" xlink:href="#B"/><use transform="matrix(0.05,0,0,0.05,30,0)" xlink:href="#E"/><use transform="matrix(0.05,0,0,0.05,44.95,0)" xlink:href="#z"/><use transform="matrix(0.05,0,0,0.05,54.95,0)" xlink:href="#ae"/><use transform="matrix(0.05,0,0,0.05,59.95,0)" xlink:href="#C"/><use transform="matrix(0.05,0,0,0.05,65.9,0)" xlink:href="#R"/><use transform="matrix(0.05,0,0,0.05,74.9,0)" xlink:href="#D"/><use transform="matrix(0.05,0,0,0.05,84.9,0)" xlink:href="#E"/><use transform="matrix(0.05,0,0,0.05,99.85000000000001,0)" xlink:href="#y"/><use transform="matrix(0.05,0,0,0.05,108.85000000000001,0)" xlink:href="#F"/><use transform="matrix(0.05,0,0,0.05,118.85000000000001,0)" xlink:href="#y"/><use transform="matrix(0.05,0,0,0.05,127.85000000000001,0)" xlink:href="#G"/><use transform="matrix(0.05,0,0,0.05,132.85000000000002,0)" xlink:href="#aG"/><use transform="matrix(0.05,0,0,0.05,144.85000000000002,0)" xlink:href="#B"/><use transform="matrix(0.05,0,0,0.05,154.85000000000002,0)" xlink:href="#y"/><use transform="matrix(0.05,0,0,0.05,163.85000000000002,0)" xlink:href="#z"/><use transform="matrix(0.05,0,0,0.05,173.85000000000002,0)" xlink:href="#J"/><use transform="matrix(0.05,0,0,0.05,185.85000000000002,0)" xlink:href="#ae"/><use transform="matrix(0.05,0,0,0.05,190.85000000000002,0)" xlink:href="#I"/><use transform="matrix(0.05,0,0,0.05,200.85000000000002,0)" xlink:href="#E"/><use transform="matrix(0.05,0,0,0.05,215.8,0)" xlink:href="#Q"/><use transform="matrix(0.05,0,0,0.05,225.8,0)" xlink:href="#z"/><use transform="matrix(0.05,0,0,0.05,235.8,0)" xlink:href="#U"/></g></defs></g></svg>